<?xml version="1.0" encoding="utf-8"?>
<!-- Generator: Adobe Illustrator 18.0.0, SVG Export Plug-In . SVG Version: 6.00 Build 0)  -->
<!DOCTYPE svg PUBLIC "-//W3C//DTD SVG 1.1//EN" "http://www.w3.org/Graphics/SVG/1.1/DTD/svg11.dtd">
<svg version="1.1" id="图层_1" xmlns="http://www.w3.org/2000/svg" xmlns:xlink="http://www.w3.org/1999/xlink" x="0px" y="0px"
	 viewBox="0 0 810 1038" enable-background="new 0 0 810 1038" xml:space="preserve">
<g id="_x23_050505ff">
	<path fill="#050505" d="M54.8,0h699.3c7.4,2.3,15.1,4,21.9,7.9c11.9,6,21.1,16.3,27.1,28c3.3,6.2,5,13.1,6.9,19.9v926.3
		c-2.2,6.9-3.7,14.2-7.2,20.6c-8,15.6-22.6,27.8-39.5,32.6c-3,0.9-6.1,1.7-9.1,2.7H55.9c-3.6-1.2-7.2-2.1-10.8-3.2
		c-17.2-5.4-31.8-18.4-39.2-34.8C3.2,994.4,2,988.1,0,982.2V55.8c1-3.4,1.8-6.8,2.8-10.2c5-16.2,16.6-30.2,31.5-38.1
		c0.1-0.1,0.3-0.1,0.3-0.2C40.9,3.7,48.1,2.4,54.8,0 M57.4,20.6c-14.9,2.4-28.1,13-33.9,26.9C21,53.4,19.9,59.7,20,66
		c0,302.3,0,604.7,0,907c-0.1,14.7,7.6,29,19.8,37.2c7.7,5.3,17,8,26.3,7.8c223,0,446,0,669,0c7.7,0,15.5,0.5,22.9-1.9
		c18.9-5.4,32.8-24.4,32.1-44.1c0-302,0-604,0-906c0.1-6.3-1-12.6-3.5-18.4C779.7,31.2,762.8,19.7,745,20c-226-0.1-452,0-678,0
		C63.8,20,60.6,20.1,57.4,20.6z"/>
	<path fill="#050505" d="M326.6,895.6c13.4-12.3,23.4-28,30.2-44.8c5.3,1.7,10.7,3.1,16,4.9c-0.5,1.5-1,2.9-1.5,4.4
		c8,14.9,19.1,28.1,32.3,38.7c-4.9,4.2-9.3,8.9-13.2,14c-11-10.4-19.5-23.1-27.1-36.1c-7.5,13.4-17,25.7-28.5,35.8
		c-1.8-1.9-3.5-3.9-5.4-5.8c-0.3,0.6-0.9,2-1.2,2.6c-22.5-0.1-45,0-67.5-0.1c0-4.6-0.1-9.2,0-13.8c2.4,0,4.9,0,7.3,0
		c0.2-11.6,0-23.2,0.1-34.8c4.9,0,9.8-0.1,14.7,0.1c0.1,11.6-0.3,23.2,0.2,34.7c2.6-0.1,5.2-0.1,7.7,0c0-14.3,0-28.5,0-42.8
		c5.2,0,10.4,0,15.5,0c0,5.4,0,10.8,0,16.1c7.1,0.1,14.1,0,21.2,0c0.1,4.7,0.1,9.3,0,14c-7.1,0-14.1,0-21.2,0c0,4.2,0,8.4,0.1,12.6
		C313,895.6,319.8,895.6,326.6,895.6z"/>
	<path fill="#050505" d="M160.3,861.5c24.4-1.7,48.9-4.1,72.7-9.5c3.6,4.5,6.1,9.8,9,14.8c-9.9,2.4-19.9,3.9-30,5.3
		c-0.1,4.8,0,9.5,0,14.3c12.9,0.1,25.8,0,38.7,0c0,5.2,0,10.4,0,15.6c-12.9,0.1-25.8,0-38.7,0.1c0,4.6,0,9.2,0,13.8
		c9.8,0,19.6,0,29.3,0c0.1,15.5,0.1,30.9,0,46.4c-25.4,0-50.9,0-76.4,0c0-15.5,0-30.9,0-46.3c9.6-0.1,19.2,0,28.8,0
		c0-4.6,0-9.2,0-13.8c-13.2-0.1-26.3,0.1-39.5-0.1c0.1-5.2,0-10.4,0-15.6c13.2,0,26.3,0.1,39.5-0.1c0-4.1,0-8.2,0-12.4
		c-9.7,0.4-19.3,1.6-29,1.5C163.8,870.6,162.3,865.9,160.3,861.5 M182,930c0,6,0,12,0,18c13.9,0,27.8,0.1,41.6-0.1
		c-0.1-6-0.1-11.9,0-17.9C209.8,929.9,195.9,930,182,930z"/>
	<path fill="#050505" d="M425.3,851.8c5.5-0.3,11-0.3,16.5,0c-0.1,9.3-0.1,18.7,0,28c5,0,10-0.1,14.9,0.1c0,5.4-0.1,10.9,0,16.3
		c-5,0.3-9.9,0.2-14.9,0.1c-0.4,7.4-0.1,14.8-0.2,22.2c4.5-1.1,9-2.3,13.4-3.5c0.9,5.4,1.7,10.8,2.5,16.2
		c-5.3,1.6-10.6,3.3-15.9,4.8c-0.1,11.4,0,22.7,0,34.1c0,5.3,0.1,11.7-4.5,15.2c-6.2,4.9-14.6,4.3-22.1,4.4
		c-1-5.6-2.5-11.2-4.7-16.4c4.9,0,9.8,0.4,14.7-0.4c0.6-10.6,0.2-21.3,0.2-32c-4.6,1.2-9.1,2.6-13.6,3.8c-1.5-5.8-3-11.6-4-17.5
		c6-1.1,11.8-2.8,17.7-4.2c-0.1-8.9,0.3-17.8-0.2-26.6c-5.4,0.1-10.8,0.1-16.1,0c0-5.5,0-11,0-16.5c5.4,0,10.8,0,16.3,0
		C425.4,870.5,425.4,861.1,425.3,851.8z"/>
	<path fill="#050505" d="M113.7,866c4.3-3.4,8.7-6.8,13.2-10.1c8.3,7.1,16.3,14.5,22.7,23.4c-4,4.3-9.2,7.7-13.7,11.6
		C129.5,881.6,121.6,873.7,113.7,866z"/>
	<path fill="#050505" d="M465,856.3c24.6,0.1,49.3,0.1,73.9,0c0.1,17.3,0,34.6,0,51.9c-24.7,0-49.3,0-74,0
		C465,890.9,464.9,873.6,465,856.3 M481.7,868.7c0,2.4,0,4.9,0,7.3c13.4,0,26.8,0,40.2,0c0-2.4,0-4.8,0-7.2
		C508.4,868.6,495.1,868.7,481.7,868.7 M481.7,888c0,2.4,0,4.8,0,7.3c13.4,0,26.8,0.1,40.1,0c0-2.4,0-4.8,0-7.2
		C508.4,888,495.1,888,481.7,888z"/>
	<path fill="#050505" d="M574.3,861c35.3-0.1,70.6,0,105.9,0c0,6,0,12,0,18c-35.3,0-70.6,0.1-105.9,0C574.4,873,574.4,867,574.3,861
		z"/>
	<path fill="#050505" d="M348.3,901.8c4.5-2.4,9-4.5,13.6-6.6c4.7,5.5,9.1,11.4,12.9,17.6c-4.6,2.4-9.2,5-13.8,7.3l-0.7-0.3
		C356.7,913.6,352.7,907.5,348.3,901.8z"/>
	<path fill="#050505" d="M560.6,897c44.5,0,89,0,133.6,0c0,6,0,12.1,0,18.2c-18.8,0-37.6,0-56.4,0c-0.2,18.6,0,37.2-0.1,55.8
		c-0.2,5-0.3,10.8-4.1,14.6c-3.9,3.6-9.4,4.7-14.4,5.5c-6.8,0.8-13.7,0.7-20.6,0.7c-1.2-6.6-3.5-12.9-6.2-19
		c7.9,0.2,15.7,0.6,23.6,0.2c2,0,2.2-2.3,2.1-3.8c0-18,0-35.9,0-53.9c-19.1,0-38.2,0-57.3,0C560.6,909.1,560.6,903.1,560.6,897z"/>
	<path fill="#050505" d="M111.6,905c11.7,0,23.4-0.1,35.1,0c-0.1,17,0,34-0.1,51c0.2,1.3-0.6,3.5,1.1,4.1
		c7.1,3.9,14.1,8.4,22.2,10.1c13.8,3,28,2.7,42.1,2.3c13.5-0.5,26.9-1.5,40.3-3c-2,5.7-3.9,11.4-4.6,17.4
		c-14.9,1.1-29.8,1.3-44.6,1.7c-15.6,0-32.1-0.1-46.4-7.4c-4.4-2-8.4-5-12.9-6.9c-3.4-1.6-7,0.6-9.6,2.8c-4.7,4.1-8.6,9-12.5,13.8
		c-3.8-5-7.4-10.2-11.2-15.3c5.5-5.8,12.1-10.4,19.1-14.2c0-13.2-0.1-26.5,0.1-39.7c-5.9-0.4-11.9-0.2-17.9-0.1
		C111.4,916.2,111.6,910.6,111.6,905z"/>
	<path fill="#050505" d="M290.4,911.3c4.5,0.4,8.9,0.7,13.4,1.2c-0.5,8.6-1.6,17.2-3.3,25.6c-0.3,1.5,1.2,2.4,1.9,3.6
		c3.5,4.6,6.6,9.5,9.6,14.5c0.1-14.1,0-28.1,0.1-42.2c4.7,0,9.3,0,14,0c0,25.6,0.1,51.1,0,76.7c-4.6-0.1-9.3-0.1-13.9,0
		c-0.1-2.4-0.1-4.9,0-7.3c-16,1-32,2.3-48,3c0-23.9,0-47.7,0-71.6c4.8,0,9.6,0,14.4,0c0.1,14.5,0,29,0.1,43.4
		c3.2-3.8,5-8.5,6.6-13.2C288.6,934.2,289.5,922.6,290.4,911.3 M286.9,970.3c-2.7-2.8-5.4-5.8-8.5-8.2c0,3.2,0,6.4,0,9.6
		c11.2-0.6,22.4-0.9,33.6-1.7c0-3.4,0-6.8,0-10.2c-3,2.6-5.9,5.3-8.8,7.9c-2.2-4.5-4.6-8.8-7.3-13
		C293.4,960.2,290.7,965.6,286.9,970.3z"/>
	<path fill="#050505" d="M457.8,914.8c29.5,0,59,0,88.5,0c0.1,4.8,0.1,9.7,0,14.6c-12.1,0-24.2,0.1-36.3,0c-0.1,4.4-0.1,8.9,0,13.3
		c9.5,0,19.1-0.3,28.6,0.1c-0.2,4.3,0.1,8.7-0.1,13l-0.6,0.6c-9.3,0.1-18.6,0-27.9,0c-0.1,5.8-0.1,11.6,0,17.4
		c13.5,0.5,27,0.1,40.5,0.2c-2.3,5-3.9,10.3-4.8,15.7c-15.4-0.6-31.1,1.5-46.2-2c-10.6-2.4-19.5-9.8-24.8-19.1
		c-4.1,8.4-8.8,16.6-15.8,23c-4.1-3.9-8.5-7.5-13.1-10.8c13.7-11.5,18.9-29.7,20.8-46.8c5.5,0.1,10.9,1.1,16.4,1.8
		c-0.6,5-1.7,10-2.7,15c2.2,7,6.5,13.4,12.7,17.5c0.1-13,0.1-26,0-39c-11.7,0.1-23.4,0.1-35.1,0
		C457.8,924.5,457.8,919.7,457.8,914.8z"/>
	<path fill="#050505" d="M332.8,921.3c13.4,0.1,26.8,0,40.2,0.1c4.3,0,8.8,0.4,13-0.9c4,2.6,8.1,5.2,12.1,7.8
		c-7.1,14.6-16.6,27.8-26.3,40.7c4,3.3,8,6.6,11.9,10c-3.3,4.7-6.8,9.3-10,14c-13-12.6-27.4-23.6-41.3-35c3.1-4,6.1-8.2,9.5-12
		c5.5,4.1,11,8.4,16.4,12.6c5.6-6.8,10.7-14,15.2-21.5c-13.6-0.1-27.2,0-40.8,0C332.6,931.8,332.4,926.5,332.8,921.3z"/>
	<path fill="#050505" d="M652.8,932.3c5.6-2.3,11.2-4.8,16.9-7c9.7,14,19.2,28.6,24.9,44.8c-6.1,2.7-12.2,5.7-18.5,8.1
		c-2.3-4.9-3.6-10.3-6.2-15.1C665.2,952.3,659,942.3,652.8,932.3z"/>
	<path fill="#050505" d="M582,925.9c6.3,1.7,12.7,3.3,19,5c-6.5,17.2-16.2,33.3-28.4,47.1c-5.4-3.9-10.9-7.6-16.7-10.8
		C567.8,955.8,576.5,941.3,582,925.9z"/>
</g>
<g id="_x23_1497dbff">
	<path fill="#1497DB" d="M34.3,7.6c0.1-0.1,0.3-0.1,0.3-0.2C34.6,7.4,34.4,7.5,34.3,7.6z"/>
	<path fill="#1497DB" d="M108,87c6.6-1.4,13.3-2.3,20-2c184.3,0,368.7,0,553,0c15-0.5,30.8,2.7,42.6,12.4c5,4.4,10,8.9,13.1,14.9
		c5.6,8.5,7.3,18.8,8.3,28.7c0,229,0,458,0,687c-226.6,0-453.3,0-679.9,0c0-226.3,0-452.6,0-679c-0.3-10.7,1.2-21.7,5.4-31.6
		C77.8,102.5,91.6,90.5,108,87 M295,248.3c-0.6,13.6-0.2,27.2-0.2,40.8c44.1,0.3,88.2-0.1,132.2,0.2c7.3-0.2,13.9,6.3,13.7,13.6
		c0,17.3-0.1,34.7,0,52c0,3.6,0.1,7.6-1.9,10.8c-2.6,4.4-7.7,7-12.8,6.7c-18.7-0.1-37.3,0-56,0c-11.6,0-23.3,0.1-34.8,2.1
		c-12.6,2.2-23.9,10.1-31,20.7c-9.9,14.1-12.9,31.9-12.8,48.8c0.1,30.3,0,60.6,0,90.9c65.8,0.2,131.7,0.1,197.5,0.1
		c0.1-13.4,0.1-26.8,0-40.2c-19.9-0.4-39.9,0-59.9-0.2c-29.7,0-59.4-0.1-89,0.1c-0.6-5.5-0.2-11.1-0.3-16.6
		c0.1-11.6-0.1-23.3,0.1-35c0.5-7.3,1.1-15.4,6.3-21c3.9-4.5,9.8-6.6,15.5-7.5c12.1-1.8,24.3-1.2,36.4-1.3c17.7-0.1,35.4,0.2,53-0.1
		c20.3-1,37.9-18.9,38.4-39.2c0.1-28.3,0-56.6,0-85c0-13.9-8-27.5-19.9-34.6c-6.5-3.9-14-6.1-21.5-6.1
		C397,248.3,346,248.4,295,248.3 M205,251c-16.1,12-32.3,24.4-51,32.1c0,14.4-0.1,28.8,0.1,43.1c4.4-1.7,8.6-4.1,12.6-6.5
		c10.1-5.1,19.9-10.7,29.7-16.4c3.5-1.9,6.4-5.1,10.6-5.6c0.3,79.1,0,158.2,0.1,237.2c15.6,0,31.3,0,46.9,0c0-95,0-190,0-284.9
		c-14.7-0.1-29.3,0-44-0.1C208.3,250,206.4,249.9,205,251 M582,324c0,16.3,0.1,32.7,0,49c-15.3,0.1-30.7,0-46,0
		c-3.1-0.5-5,2.4-6.7,4.4c-0.6,7.2-0.1,14.5-0.3,21.7c-0.4,3.1,2.6,5.8,5.2,6.9c15.9,0.3,31.9,0,47.8,0.1c0.1,16.3,0,32.7,0,49
		c-0.4,3.2,2.8,6.4,6,6c7.4,0,14.7,0,22.1,0c3.2,0.4,6.4-2.8,6-6c0-16.3-0.1-32.7,0-49c15.6-0.1,31.3,0.1,47,0
		c2.2,0.2,3.5-1.9,4.8-3.3c0.6-7.9,0.1-15.8,0.2-23.7c0.4-3.2-2.8-6.4-6-6c-15.3,0-30.7,0.1-46,0c-0.1-16.3,0-32.7,0-49
		c0.4-3.2-2.8-6.4-6-6c-7.4,0-14.7,0-22.1,0C584.7,317.5,581.5,320.7,582,324 M187.9,685.9c-11.8,8.5-18.1,23-19.1,37.2
		c-1.4,14.9,2.4,31.1,13.4,41.8c9.3,9.5,22.9,13.2,35.9,13.1c9.9,0.1,20.3-2.4,27.8-9.2c6.7-6.2,9.4-15.5,9.9-24.4
		c-1.8-0.2-3.6-0.4-5.4-0.5c-1.4,7-3.3,14.7-8.8,19.6c-7.2,6-17.4,7-26.3,5.4c-9.3-1.8-17-8.6-21-17c-4.8-10.1-5.6-21.6-4.5-32.6
		c1.4-11.7,6.2-23.5,15.3-31.3c8.7-7.7,23.3-7.7,31.5,0.7c7,6.2,9.5,15.4,12.7,23.8c2,0.3,5,0.1,5.1-2.5c-0.1-10.6-0.7-21.3-0.6-32
		c-1.5-0.1-3.1-0.3-4.6-0.4c-1,1.3-2.1,2.6-3.1,4c-5.6-1.4-10.9-3.7-16.6-4.8C215.1,674.2,199.7,677.4,187.9,685.9 M303.1,680
		c-9,23-17.8,46.1-26.9,69.1c-2.6,6.3-5.1,13-10.2,17.8c-2.5,2.4-6,2.8-9.3,3.3c-0.3,2-0.2,5.2,2.4,5.4c9,0.2,17.9,0,26.9,0.1
		c1.6-0.2,3.7,0.4,4.6-1.3c1.1-1.2,0.4-2.8,0.5-4.2c-3.3-0.6-7.4-1-9.4-4.1c-2.5-3.7-1-8.3,0.3-12.1c2-5.3,4-10.5,6.2-15.8
		c9.1,0.1,18.2-0.1,27.3,0.1c2.4,6.5,5.3,12.9,7.7,19.4c1,2.9,1.9,6.6-0.5,9c-2.8,3-7.3,2.8-11,3.5c-0.4,2.3,0.2,5.9,3.3,5.5
		c14.3,0,28.5,0.1,42.8,0c2.9-0.1,2.7-3.4,2.4-5.5c-3.8-0.7-8.1-0.7-11.1-3.4c-3-3-4.6-7-6.4-10.7c-10.8-25.9-21.5-51.9-32.2-77.8
		C308.1,678.6,304,676.8,303.1,680 M362.4,678.5c-1.7,1.2-1.4,3.4-1.4,5.2c3.9,0.6,8.6,0.7,11.4,3.9c2.8,3.4,2.6,8.2,2.8,12.4
		c0,18.3,0,36.6,0,55c-0.3,4.3-0.3,9.3-3.9,12.3c-2.9,2.7-7.1,2.4-10.7,2.9c-0.1,2,0.5,3.8,1.6,5.5c16.6,0.2,33.2,0,49.8,0.1
		c11.4-0.3,23.6-0.8,33.4-7.3c11-7.3,16.7-20.5,17.6-33.4c1.3-15.5-3.7-32-15-43c-8.6-8.8-20.8-13.1-32.9-13.6
		c-15-0.5-30-0.1-45-0.2C367.5,678.2,364.9,678,362.4,678.5 M471.2,681.7c2,3.4,6.9,2.1,9.8,4.3c4.6,3,4.5,9.1,4.6,14
		c0,18,0,36.1,0,54.1c-0.2,4.2,0.1,9.1-3.1,12.5c-2.9,3.3-7.6,3.2-11.6,3.8c0,2.1,0.4,5.2,3.1,5.4c13.9,0.1,27.9,0.1,41.8,0
		c3.1,0.4,3.1-3.4,3.1-5.5c-3.8-0.5-8.1-0.4-11-3.4c-3.1-3.1-3.2-7.8-3.3-11.9c0.1-8.4-0.1-16.8,0.1-25.1c7.9-0.2,15.8,0.1,23.7-0.5
		c7-0.7,14.2-3.5,18.6-9.3c4.4-5.6,5.1-13.3,4-20.1c-1.6-9.7-9.5-17.7-18.8-20.3c-5.7-1.4-11.6-1.3-17.4-1.5c-13.3,0-26.7,0-40,0
		C473.1,678,470.9,679.7,471.2,681.7 M597.1,678.2c-9.9,24.6-19.1,49.4-28.9,74c-2.4,5.6-4.8,11.5-9.6,15.4c-2.4,2-5.7,2.2-8.6,2.8
		c-0.1,2.1,0,5.8,3.1,5.4c9.6,0.1,19.2,0.1,28.8,0c2.7-0.1,2.8-3.2,3-5.2c-3.3-0.8-7.2-0.9-9.4-3.8c-2.8-3.3-1.7-7.9-0.4-11.7
		c2-5.6,4.3-11,6.4-16.6c9.1-0.1,18.2-0.1,27.3,0c2.2,5.4,4.4,10.9,6.7,16.3c1.3,3.4,3.1,7.3,1.5,11c-2.4,4.1-7.8,3.9-11.9,4.6
		c-0.1,2.1,0,5.8,3,5.5c14.3,0.1,28.6,0.1,42.9,0c2.9,0.1,3-3.3,3-5.4c-4.1-0.9-9.1-0.7-12.1-4.1c-3-3.3-4.5-7.6-6.4-11.6
		c-10.6-25.5-21.1-50.9-31.7-76.4C601.5,678.2,599.3,678.2,597.1,678.2z"/>
	<path fill="#1497DB" d="M394.3,684.9c10-0.9,20.9-0.5,29.4,5.4c12.5,8.5,18.8,24,18.8,38.8c0.3,12.5-3.8,25.7-13.2,34.3
		c-4.9,4.6-11.7,6.5-18.3,6.4c-4.5,0.1-9.6-0.4-12.9-3.8c-3.4-3.4-3.7-8.4-3.8-12.9C394.3,730.3,394.4,707.6,394.3,684.9z"/>
	<path fill="#1497DB" d="M504.9,684.7c6.4-0.2,13.7-1.1,19,3.4c9.6,8,9.7,25.6-1.1,32.7c-5.4,3.2-12,2.5-18,2.5
		C504.7,710.4,504.7,697.6,504.9,684.7z"/>
	<path fill="#1497DB" d="M291,731.1c3.4-9,6.5-18.3,10.6-27.1c3.5,9,7.5,17.9,10.7,27.1C305.2,731.3,298.1,731.3,291,731.1z"/>
	<path fill="#1497DB" d="M594.5,704c4.1,8.8,7.6,17.9,11,27.1c-7.1,0.2-14.2,0.2-21.3,0C587.5,722,591,713.1,594.5,704z"/>
</g>
<rect x="65" y="621.9" fill="#1497DB" width="680" height="206.1"/>
<g id="_x23_ffffffff">
	<path fill="#FFFFFF" d="M57.4,20.6c3.2-0.5,6.4-0.7,9.6-0.7c226,0,452,0,678,0c17.7-0.3,34.7,11.2,41.5,27.5
		c2.5,5.8,3.6,12.1,3.5,18.4c0,302,0,604,0,906c0.7,19.7-13.1,38.7-32.1,44.1c-7.4,2.4-15.3,1.9-22.9,1.9c-223,0-446,0-669,0
		c-9.3,0.2-18.6-2.5-26.3-7.8C27.6,1002,19.9,987.7,20,973c0-302.3,0-604.7,0-907c-0.1-6.3,1-12.6,3.5-18.5
		C29.4,33.7,42.5,23.1,57.4,20.6 M108,87c-16.4,3.6-30.2,15.5-37.6,30.4c-4.3,9.9-5.8,20.9-5.4,31.6c0,226.3,0,452.7,0,679
		c226.6,0,453.3,0,679.9,0c0-229,0-458,0-687c-1-9.9-2.6-20.2-8.3-28.7c-3.1-5.9-8.2-10.5-13.1-14.9C711.8,87.7,696,84.5,681,85
		c-184.3,0-368.7,0-553,0C121.3,84.7,114.6,85.6,108,87 M326.6,895.6c-6.8,0-13.6,0-20.4,0c-0.1-4.2,0-8.4-0.1-12.6
		c7.1-0.1,14.1,0,21.2,0c0.1-4.7,0.1-9.3,0-14c-7.1,0-14.1,0-21.2,0c0-5.4,0-10.8,0-16.1c-5.2,0-10.4,0-15.5,0
		c-0.1,14.3,0,28.5,0,42.8c-2.6,0-5.2,0-7.7,0c-0.4-11.6-0.1-23.2-0.2-34.7c-4.9-0.2-9.8-0.1-14.7-0.1c0,11.6,0.1,23.2-0.1,34.8
		c-2.4,0-4.9,0-7.3,0c-0.1,4.6,0,9.2,0,13.8c22.5,0.1,45,0,67.5,0.1c0.3-0.7,0.9-2,1.2-2.6c1.8,1.9,3.5,3.9,5.4,5.8
		c11.5-10.2,21-22.5,28.5-35.8c7.6,13,16.2,25.6,27.1,36.1c3.9-5.1,8.3-9.8,13.2-14c-13.1-10.7-24.3-23.8-32.3-38.7
		c0.5-1.5,1-2.9,1.5-4.4c-5.3-1.7-10.7-3.2-16-4.9C350,867.6,340,883.3,326.6,895.6 M160.3,861.5c2,4.5,3.5,9.2,4.5,14
		c9.7,0.1,19.3-1.1,29-1.5c0,4.1,0,8.2,0,12.4c-13.2,0.2-26.3,0-39.5,0.1c0,5.2,0,10.4,0,15.6c13.2,0.1,26.3,0,39.5,0.1
		c0,4.6,0,9.2,0,13.8c-9.6,0-19.2,0-28.8,0c0,15.4,0,30.9,0,46.3c25.5,0,50.9,0,76.4,0c0.1-15.5,0.1-30.9,0-46.4
		c-9.8,0-19.6,0-29.3,0c-0.1-4.6,0-9.2,0-13.8c12.9,0,25.8,0.1,38.7-0.1c-0.1-5.2,0-10.4,0-15.6c-12.9,0-25.8,0-38.7,0
		c0-4.8,0-9.5,0-14.3c10.1-1.4,20.1-2.9,30-5.3c-2.9-4.9-5.4-10.3-9-14.8C209.1,857.4,184.7,859.8,160.3,861.5 M425.3,851.8
		c0.1,9.3,0.1,18.7,0,28.1c-5.4,0-10.8,0-16.3,0c0,5.5,0,11,0,16.5c5.4,0,10.8,0.1,16.1,0c0.4,8.9,0.1,17.8,0.2,26.6
		c-5.9,1.4-11.7,3.1-17.7,4.2c1,5.9,2.5,11.7,4,17.5c4.5-1.2,9-2.6,13.6-3.8c0,10.7,0.4,21.4-0.2,32c-4.8,0.7-9.8,0.4-14.7,0.4
		c2.3,5.2,3.8,10.8,4.7,16.4c7.4-0.1,15.9,0.5,22.1-4.4c4.5-3.6,4.4-10,4.5-15.2c0-11.4-0.1-22.7,0-34.1c5.3-1.6,10.6-3.2,15.9-4.8
		c-0.7-5.4-1.5-10.8-2.5-16.2c-4.5,1.2-8.9,2.4-13.4,3.5c0-7.4-0.3-14.8,0.2-22.2c5,0,9.9,0.2,14.9-0.1c-0.1-5.4-0.1-10.9,0-16.3
		c-5-0.2-10-0.1-14.9-0.1c-0.1-9.4-0.1-18.7,0-28C436.3,851.5,430.8,851.5,425.3,851.8 M113.7,866c7.9,7.8,15.8,15.7,22.1,24.9
		c4.5-3.9,9.7-7.3,13.7-11.6c-6.4-8.8-14.4-16.3-22.7-23.4C122.4,859.2,118,862.5,113.7,866 M465,856.3c-0.1,17.3,0,34.6,0,51.9
		c24.7,0,49.3,0,74,0c0-17.3,0.1-34.6,0-51.9C514.3,856.4,489.7,856.4,465,856.3 M574.3,861c0,6,0,11.9,0,17.9
		c35.3,0.1,70.6,0,105.9,0c0-6,0-12,0-18C644.9,861,609.6,860.9,574.3,861 M348.3,901.8c4.4,5.8,8.4,11.8,12,18.1l0.7,0.3
		c4.7-2.3,9.2-4.9,13.8-7.3c-3.8-6.3-8.2-12.1-12.9-17.6C357.3,897.3,352.7,899.4,348.3,901.8 M560.6,897c-0.1,6.1-0.1,12.1,0,18.2
		c19.1,0,38.2,0,57.3,0c0.1,18,0,35.9,0,53.9c0.1,1.5-0.1,3.8-2.1,3.8c-7.8,0.4-15.7,0-23.6-0.2c2.6,6.1,5,12.4,6.2,19
		c6.9,0,13.8,0.1,20.6-0.7c5.1-0.8,10.5-1.9,14.4-5.5c3.8-3.8,3.9-9.5,4.1-14.6c0.1-18.6-0.1-37.2,0.1-55.8c18.8,0,37.6,0,56.4,0
		c0-6.1,0-12.1,0-18.2C649.7,897,605.1,897,560.6,897 M111.6,905c0,5.6-0.2,11.2,0.1,16.7c6,0,11.9-0.3,17.9,0.1
		c-0.1,13.2,0,26.5-0.1,39.7c-7,3.8-13.6,8.5-19.1,14.2c3.8,5.1,7.3,10.3,11.2,15.3c3.9-4.9,7.8-9.8,12.5-13.8
		c2.6-2.2,6.1-4.4,9.6-2.8c4.5,1.9,8.5,4.9,12.9,6.9c14.3,7.2,30.7,7.3,46.4,7.4c14.9-0.3,29.8-0.6,44.6-1.7
		c0.7-6,2.6-11.7,4.6-17.4c-13.4,1.5-26.8,2.5-40.3,3c-14,0.4-28.3,0.7-42.1-2.3c-8.1-1.7-15.1-6.2-22.2-10.1
		c-1.7-0.6-0.9-2.8-1.1-4.1c0.1-17,0-34,0.1-51C135,904.9,123.3,905,111.6,905 M290.4,911.3c-1,11.4-1.9,22.9-5.4,33.8
		c-1.5,4.7-3.4,9.3-6.6,13.2c-0.1-14.5,0-29-0.1-43.4c-4.8,0-9.6,0-14.4,0c0,23.9,0,47.7,0,71.6c16-0.7,32-2.1,48-3
		c0,2.4,0,4.9,0,7.3c4.6-0.1,9.3-0.1,13.9,0c0.1-25.6,0-51.1,0-76.7c-4.7,0-9.3,0-14,0c0,14.1,0.1,28.1-0.1,42.2
		c-3-5-6.1-9.9-9.6-14.5c-0.6-1.2-2.1-2.1-1.9-3.6c1.7-8.5,2.8-17,3.3-25.6C299.3,912,294.9,911.7,290.4,911.3 M457.8,914.8
		c0,4.8-0.1,9.7,0,14.5c11.7,0,23.4,0.1,35.1,0c0.1,13,0.1,26,0,39c-6.1-4.1-10.5-10.6-12.7-17.5c1-5,2-10,2.7-15
		c-5.4-0.7-10.9-1.6-16.4-1.8c-1.9,17.1-7,35.3-20.8,46.8c4.7,3.2,9,6.9,13.1,10.8c6.9-6.4,11.7-14.7,15.8-23
		c5.4,9.3,14.2,16.7,24.8,19.1c15.1,3.5,30.8,1.4,46.2,2c0.9-5.4,2.5-10.7,4.8-15.7c-13.5-0.1-27,0.3-40.5-0.2
		c-0.1-5.8-0.1-11.6,0-17.4c9.3,0.1,18.6,0.1,27.9,0l0.6-0.6c0.2-4.3-0.1-8.7,0.1-13c-9.5-0.4-19.1-0.1-28.6-0.1
		c-0.1-4.4-0.1-8.9,0-13.3c12.1,0.1,24.2,0.1,36.3,0c0-4.8,0.1-9.7,0-14.6C516.9,914.8,487.3,914.8,457.8,914.8 M332.8,921.3
		c-0.4,5.2-0.1,10.5-0.1,15.7c13.6,0,27.2,0,40.8,0c-4.5,7.6-9.6,14.7-15.2,21.5c-5.5-4.2-10.9-8.5-16.4-12.6c-3.4,3.8-6.3,8-9.5,12
		c14,11.5,28.3,22.5,41.3,35c3.3-4.7,6.7-9.3,10-14c-3.9-3.5-7.9-6.8-11.9-10c9.8-12.9,19.3-26.1,26.3-40.7
		c-4.1-2.6-8.1-5.2-12.1-7.8c-4.2,1.3-8.7,0.9-13,0.9C359.6,921.3,346.2,921.4,332.8,921.3 M652.8,932.3c6.1,10,12.3,20,17.1,30.7
		c2.5,4.9,3.9,10.2,6.2,15.1c6.3-2.3,12.3-5.3,18.5-8.1c-5.7-16.2-15.1-30.8-24.9-44.8C664,927.6,658.5,930.1,652.8,932.3
		 M582,925.9c-5.6,15.4-14.2,29.9-26.1,41.3c5.8,3.2,11.4,6.9,16.7,10.8c12.2-13.8,21.9-29.9,28.4-47.1
		C594.7,929.2,588.4,927.6,582,925.9z"/>
	<path fill="#FFFFFF" d="M295,248.3c51,0.1,102.1,0,153.1,0c7.6,0,15.1,2.2,21.5,6.1c11.9,7.1,19.9,20.7,19.9,34.6
		c0,28.3,0,56.6,0,85c-0.5,20.3-18.1,38.3-38.4,39.2c-17.7,0.2-35.4,0-53,0.1c-12.1,0.1-24.4-0.5-36.4,1.3c-5.8,0.9-11.6,3-15.5,7.5
		c-5.2,5.6-5.9,13.7-6.3,21c-0.2,11.6,0,23.3-0.1,35c0.1,5.5-0.3,11.1,0.3,16.6c29.7-0.1,59.4,0,89-0.1c20,0.1,39.9-0.2,59.9,0.2
		c0,13.4,0.1,26.8,0,40.2c-65.8,0-131.7,0.1-197.5-0.1c0-30.3,0.1-60.6,0-90.9c-0.1-16.9,3-34.7,12.8-48.8
		c7.1-10.6,18.4-18.4,31-20.7c11.5-1.9,23.2-2.1,34.8-2.1c18.7,0,37.3,0,56,0c5.1,0.3,10.2-2.3,12.8-6.7c2.1-3.2,2-7.1,1.9-10.8
		c-0.1-17.3,0-34.7,0-52c0.2-7.3-6.4-13.8-13.7-13.6c-44.1-0.3-88.2,0.1-132.2-0.2C294.7,275.5,294.4,261.9,295,248.3z"/>
	<path fill="#FFFFFF" d="M205,251c1.4-1.1,3.3-1,5-1c14.7,0.1,29.3,0,44,0.1c0,95,0,189.9,0,284.9c-15.6,0-31.3,0-46.9,0
		c-0.1-79.1,0.1-158.2-0.1-237.2c-4.1,0.5-7.1,3.7-10.6,5.6c-9.8,5.7-19.6,11.3-29.7,16.4c-4,2.5-8.2,4.8-12.6,6.5
		c-0.1-14.4,0-28.8-0.1-43.1C172.7,275.4,188.9,263,205,251z"/>
	<path fill="#FFFFFF" d="M582,324c-0.4-3.2,2.8-6.4,6-6c7.4,0,14.7,0,22.1,0c3.2-0.4,6.4,2.8,6,6c0,16.3-0.1,32.7,0,49
		c15.3,0.1,30.7,0,46,0c3.2-0.4,6.4,2.8,6,6c-0.2,7.9,0.3,15.8-0.2,23.7c-1.3,1.4-2.6,3.6-4.8,3.3c-15.7,0.1-31.3-0.1-47,0
		c-0.1,16.3,0,32.7,0,49c0.4,3.2-2.8,6.4-6,6c-7.4,0-14.7,0-22.1,0c-3.2,0.4-6.4-2.8-6-6c0-16.3,0.1-32.7,0-49
		c-15.9-0.1-31.9,0.2-47.8-0.1c-2.6-1.1-5.5-3.7-5.2-6.9c0.2-7.2-0.3-14.5,0.3-21.7c1.8-2,3.6-4.9,6.7-4.4c15.3,0,30.7,0.1,46,0
		C582,356.6,582,340.3,582,324z"/>
	<path fill="#FFFFFF" d="M177.7,685.9c11.9-8.4,27.2-11.6,41.5-9.1c5.7,1,11,3.4,16.6,4.8c1-1.3,2.1-2.7,3.1-4
		c1.5,0.1,3.1,0.3,4.6,0.4c-0.1,10.7,0.5,21.3,0.6,32c-0.1,2.6-3.1,2.7-5.1,2.5c-3.2-8.4-5.7-17.7-12.7-23.8
		c-8.2-8.4-22.8-8.4-31.5-0.7c-9.1,7.8-14,19.6-15.3,31.3c-1,11-0.3,22.5,4.5,32.6c4,8.4,11.7,15.3,21,17c8.9,1.6,19.1,0.7,26.3-5.4
		c5.6-5,7.4-12.6,8.8-19.6c1.8,0.2,3.6,0.4,5.4,0.5c-0.5,8.9-3.2,18.2-9.9,24.4c-7.4,6.8-17.9,9.3-27.8,9.2
		c-12.9,0-26.6-3.7-35.9-13.1c-11-10.7-14.8-26.9-13.4-41.8C159.6,708.8,165.9,694.4,177.7,685.9z"/>
	<path fill="#FFFFFF" d="M297.6,680.1c1-3.2,5.1-1.4,7.5-1.7c10.7,26,21.4,51.9,32.2,77.8c1.7,3.8,3.3,7.8,6.4,10.7
		c3,2.7,7.3,2.7,11.1,3.4c0.3,2,0.5,5.3-2.4,5.5c-14.3,0.1-28.5,0-42.8,0c-3.1,0.4-3.7-3.2-3.3-5.5c3.7-0.7,8.3-0.4,11-3.5
		c2.3-2.5,1.5-6.2,0.5-9c-2.5-6.5-5.3-12.9-7.7-19.4c-9.1-0.2-18.2,0-27.3-0.1c-2.1,5.2-4.2,10.5-6.2,15.8
		c-1.3,3.8-2.7,8.5-0.3,12.1c2,3.2,6.1,3.5,9.4,4.1c-0.1,1.4,0.6,3.1-0.5,4.2c-0.9,1.7-3.1,1.1-4.6,1.3c-9-0.1-17.9,0.1-26.9-0.1
		c-2.6-0.3-2.6-3.4-2.4-5.4c3.2-0.5,6.8-0.9,9.3-3.3c5.1-4.8,7.6-11.5,10.2-17.8C279.8,726.2,288.7,703.1,297.6,680.1 M285.5,731.2
		c7.1,0.2,14.2,0.2,21.3,0c-3.2-9.2-7.2-18-10.7-27.1C292,712.9,289,722.1,285.5,731.2z"/>
	<path fill="#FFFFFF" d="M362.4,678.5c2.5-0.4,5.1-0.2,7.6-0.3c15,0.1,30-0.2,45,0.2c12.1,0.5,24.3,4.8,32.9,13.6
		c11.3,11,16.3,27.5,15,43c-0.9,12.9-6.6,26.1-17.6,33.4c-9.8,6.6-22,7-33.4,7.3c-16.6,0-33.2,0.1-49.8-0.1
		c-1.1-1.6-1.7-3.5-1.6-5.5c3.6-0.5,7.8-0.2,10.7-2.9c3.6-3,3.6-8,3.9-12.3c0.1-18.3,0-36.7,0-55c-0.2-4.2,0-9-2.8-12.4
		c-2.8-3.3-7.5-3.3-11.4-3.9C361.1,681.9,360.7,679.7,362.4,678.5 M394.3,684.9c0.1,22.7,0,45.5,0,68.2c0.1,4.5,0.4,9.5,3.8,12.9
		c3.4,3.4,8.4,3.9,12.9,3.8c6.6,0,13.4-1.8,18.3-6.4c9.4-8.6,13.5-21.8,13.2-34.3c0-14.8-6.2-30.3-18.8-38.8
		C415.1,684.4,404.3,684,394.3,684.9z"/>
	<path fill="#FFFFFF" d="M469.1,681.7c-0.3-2,1.9-3.8,3.8-3.5c13.3,0,26.7,0,40,0c5.8,0.2,11.7,0.1,17.4,1.5
		c9.3,2.6,17.2,10.6,18.8,20.3c1.1,6.8,0.4,14.5-4,20.1c-4.4,5.7-11.6,8.6-18.6,9.3c-7.9,0.6-15.8,0.2-23.7,0.5
		c-0.2,8.4,0,16.7-0.1,25.1c0.1,4.1,0.2,8.8,3.3,11.9c2.8,3,7.2,2.9,11,3.4c0,2.1,0,5.8-3.1,5.5c-13.9,0-27.9,0.1-41.8,0
		c-2.7-0.1-3.1-3.3-3.1-5.4c4-0.6,8.7-0.5,11.6-3.8c3.1-3.3,2.8-8.3,3.1-12.5c0.1-18,0-36.1,0-54.1c-0.2-4.9-0.1-10.9-4.6-14
		C475.9,683.8,471.1,685.1,469.1,681.7 M502.7,684.7c-0.1,12.9-0.1,25.7,0,38.6c6,0,12.6,0.7,18-2.5c10.8-7.1,10.7-24.7,1.1-32.7
		C516.4,683.6,509.1,684.5,502.7,684.7z"/>
	<path fill="#FFFFFF" d="M602.3,678.2c2.2,0,4.4,0,6.6,0.1c10.6,25.4,21.1,50.9,31.7,76.4c1.8,4,3.4,8.3,6.4,11.6
		c3.1,3.4,8,3.2,12.1,4.1c0,2.1-0.1,5.5-3,5.4c-14.3,0.1-28.6,0.1-42.9,0c-3,0.4-3.2-3.3-3-5.5c4.1-0.7,9.4-0.5,11.9-4.6
		c1.6-3.7-0.2-7.6-1.5-11c-2.3-5.4-4.5-10.9-6.7-16.3c-9.1-0.1-18.2-0.1-27.3,0c-2,5.6-4.4,11-6.4,16.6c-1.2,3.7-2.4,8.3,0.4,11.7
		c2.2,3,6.1,3.1,9.4,3.8c-0.2,2-0.3,5.1-3,5.2c-9.6,0.1-19.2,0.1-28.8,0c-3,0.4-3.1-3.3-3.1-5.4c3-0.5,6.2-0.7,8.6-2.8
		c4.8-3.9,7.3-9.8,9.6-15.4C583.3,727.6,592.4,702.7,602.3,678.2 M599.6,704c-3.4,9-7,18-10.3,27.1c7.1,0.2,14.2,0.2,21.3,0
		C607.3,722,603.8,712.8,599.6,704z"/>
	<path fill="#FFFFFF" d="M481.7,868.7c13.4,0,26.8-0.1,40.1,0c0,2.4,0,4.8,0,7.2c-13.4,0.1-26.8,0-40.2,0
		C481.6,873.5,481.6,871.1,481.7,868.7z"/>
	<path fill="#FFFFFF" d="M481.7,888c13.4,0,26.8,0,40.2,0c0,2.4,0,4.8,0,7.2c-13.4,0.2-26.8,0.1-40.1,0
		C481.6,892.9,481.6,890.4,481.7,888z"/>
	<path fill="#FFFFFF" d="M182,930c13.9,0,27.8-0.1,41.6,0.1c-0.1,6-0.1,11.9,0,17.9c-13.9,0.2-27.8,0-41.6,0.1
		C182,942,182,936,182,930z"/>
	<path fill="#FFFFFF" d="M286.9,970.3c3.8-4.7,6.6-10.1,9-15.6c2.7,4.2,5.1,8.5,7.3,13c2.9-2.6,5.8-5.3,8.8-7.9c0,3.4,0,6.8,0,10.2
		c-11.2,0.8-22.4,1.2-33.6,1.7c0-3.2,0-6.4,0-9.6C281.5,964.5,284.1,967.5,286.9,970.3z"/>
</g>
</svg>
