<?xml version="1.0" encoding="utf-8"?>
<!-- Generator: Adobe Illustrator 18.0.0, SVG Export Plug-In . SVG Version: 6.00 Build 0)  -->
<!DOCTYPE svg PUBLIC "-//W3C//DTD SVG 1.1//EN" "http://www.w3.org/Graphics/SVG/1.1/DTD/svg11.dtd">
<svg version="1.1" id="图层_1" xmlns="http://www.w3.org/2000/svg" xmlns:xlink="http://www.w3.org/1999/xlink" x="0px" y="0px"
	 viewBox="0 0 810 1038" enable-background="new 0 0 810 1038" xml:space="preserve">
<g id="_x23_050505ff">
	<path fill="#050505" d="M55.4,0h698.2c10.5,2.5,21.1,5.9,29.9,12.5c14.4,10.2,22.9,26.7,26.5,43.7v925.4c-2,6.9-3.5,14.1-6.9,20.5
		c-7.2,14.5-20.1,26.1-35.3,31.8c-4.6,1.7-9.5,2.7-14.2,4.2H56.4c-5.7-1.7-11.6-2.8-17.1-5.3c-15.8-6.8-28.7-20.1-34.9-36.2
		c-1.9-4.8-2.9-10-4.4-14.9V56.3c1.8-7,3.4-14.1,6.8-20.5c6.3-13,17.3-23.4,30.2-29.7C42.9,3.3,49.3,2,55.4,0 M57.4,20.6
		c-21,3.2-37.8,23-37.4,44.3c0,302.4,0,604.7,0,907c-0.1,5.8,0.9,11.5,2.9,16.9c6.3,17.1,23.7,29.3,42,29.1c226.4,0,452.7,0,679,0
		c5.5,0,11-0.8,16.2-2.7c17.5-6.1,30-23.8,29.8-42.3c0-302.7,0-605.4,0-908.1c0.1-14.9-7.9-29.5-20.4-37.6c-7.5-5-16.6-7.5-25.6-7.4
		c-226,0-452,0-678,0C63.1,20,60.2,20.1,57.4,20.6z"/>
	<path fill="#050505" d="M326.6,895.6c13.3-12.4,23.5-27.9,30.1-44.8c5.4,1.7,10.8,3.2,16.1,4.9c-0.5,1.4-1.1,2.9-1.6,4.4
		c8.1,14.9,19.1,28.2,32.4,38.7c-4.9,4.3-9.4,8.9-13.3,14.1c-11-10.5-19.7-23.1-27.1-36.2c-7.4,13.5-17,25.9-28.6,36
		c-1.8-2.2-3.7-4.3-5.7-6.2c-0.1,0.8-0.3,2.3-0.3,3c-22.6-0.1-45.3,0-67.9-0.1c0-4.6,0-9.2,0-13.8c2.5,0,4.9,0,7.4,0
		c0-11.6,0-23.2,0-34.8c4.9,0,9.8,0,14.7,0c0,11.6-0.1,23.2,0,34.8c2.6,0,5.3,0,7.9,0c0-14.3,0-28.5,0-42.8c5.2,0,10.4,0,15.6,0
		c0,5.4,0,10.8,0,16.2c7.1,0,14.1,0,21.2,0c0,4.7,0,9.3,0,14c-7.1,0-14.1,0-21.2,0c0,4.2,0,8.4,0,12.6
		C313,895.6,319.8,895.6,326.6,895.6z"/>
	<path fill="#050505" d="M160.3,861.5c24.5-1.7,49-4.1,73-9.5c3.2,4.8,5.9,9.8,8.8,14.8c-9.9,2.4-20,3.9-30.1,5.3
		c0,4.8,0,9.6,0,14.3c12.9,0,25.8,0,38.7,0c0,5.2,0,10.4,0,15.7c-12.9,0-25.8,0-38.7,0c0,4.6,0,9.2,0,13.8c9.8,0,19.6,0,29.4,0
		c0,15.5,0,30.9,0,46.4c-25.5,0-50.9,0-76.4,0c0-15.5,0-30.9,0-46.4c9.6,0,19.2,0,28.8,0c0-4.6,0-9.2,0-13.8c-13.2,0-26.3,0-39.5,0
		c0-5.2,0-10.5,0-15.7c13.2,0,26.3,0,39.5,0c0-4.2,0-8.3,0-12.5c-9.7,0.6-19.3,1.6-29,1.6C163.8,870.6,162.3,865.9,160.3,861.5
		 M182,930c0,6,0,12,0,18c13.9,0,27.7,0,41.6,0c0-6,0-12,0-18C209.7,930,195.9,930,182,930z"/>
	<path fill="#050505" d="M425.3,851.6c5.3,0,10.5-0.1,15.7,0l0.5,0.6c0.1,9.2,0,18.4,0.1,27.6c5,0,10,0,15,0c0,5.5,0,11,0,16.6
		c-5,0-10,0-15,0c-0.1,7.4,0,14.8,0,22.2c4.5-1.2,9-2.4,13.5-3.6c0.9,5.4,1.7,10.8,2.4,16.2c-5.3,1.6-10.6,3.2-15.9,4.8
		c0,10.7,0,21.3,0,32c0,4.2,0.2,8.5-1.1,12.5c-1.1,3.6-4.3,6-7.6,7.2c-5.7,2.1-11.8,1.9-17.8,1.9c-0.9-5.6-2.4-11.1-4.7-16.4
		c4.9,0,9.8,0.2,14.7-0.3c0.6-10.7,0.1-21.4,0.2-32.2c-4.6,1.2-9.1,2.6-13.8,3.9c-1.4-5.8-2.8-11.6-4.1-17.5
		c6-1.2,11.9-2.8,17.8-4.3c0-8.9,0-17.7,0-26.6c-5.4,0-10.9,0-16.3,0c0-5.5,0-11.1,0-16.6c5.4,0,10.9,0,16.3,0
		C425.4,870.4,425.4,861,425.3,851.6z"/>
	<path fill="#050505" d="M113.6,866c4.4-3.4,8.8-6.8,13.2-10.2c8.4,7.1,16.4,14.8,23,23.7c-4.7,3.8-9.3,7.6-14,11.4
		C129.6,881.6,121.7,873.7,113.6,866z"/>
	<path fill="#050505" d="M465,856.3c24.7,0,49.3,0,74,0c0,17.3,0,34.6,0,51.8c-24.7,0-49.3,0-74,0C465,890.9,465,873.6,465,856.3
		 M481.7,868.7c0,2.4,0,4.9,0,7.3c13.4,0,26.8,0,40.1,0c0-2.5,0-4.9,0-7.3C508.4,868.6,495,868.7,481.7,868.7 M481.7,888
		c0,2.4,0,4.9,0,7.3c13.4,0,26.8,0,40.1,0c0-2.5,0-4.9,0-7.3C508.4,888,495,888,481.7,888z"/>
	<path fill="#050505" d="M574.3,861c35.3,0,70.6,0,105.8,0c0,6,0,12,0,18c-35.3,0-70.6,0-105.8,0C574.3,873,574.3,867,574.3,861z"/>
	<path fill="#050505" d="M348.2,901.7c4.5-2.2,9.1-4.4,13.7-6.5c4.7,5.6,9.1,11.4,12.9,17.6c-4.7,2.4-9.4,5-14.1,7.5
		C356.8,914,352.9,907.6,348.2,901.7z"/>
	<path fill="#050505" d="M560.6,897c44.5,0,89.1,0,133.6,0c0,6.1,0,12.1,0,18.2c-18.8,0-37.7,0-56.5,0c0,17.3,0,34.6,0,51.9
		c-0.1,5.2,0.3,10.8-2.1,15.6c-2,4.1-6.6,6.1-10.8,7.2c-8.6,2.2-17.5,1.7-26.3,1.8c-1.3-6.6-3.5-13-6.3-19.1
		c7.9,0.3,15.8,0.6,23.7,0.3c1.5,0,2.3-1.5,2.2-2.9c0.1-18.3,0-36.5,0-54.8c-19.1,0-38.3,0-57.4,0
		C560.6,909.1,560.6,903.1,560.6,897z"/>
	<path fill="#050505" d="M111.6,905c11.7,0,23.4,0,35.1,0c0.1,18.2-0.2,36.4,0.1,54.6c4.9,2.7,9.7,5.6,14.9,7.9
		c8.3,3.6,17.5,4.5,26.4,5c21.5,0.8,42.9-0.7,64.3-3c-2.2,5.7-3.9,11.5-4.7,17.5c-14.9,0.9-29.8,1.3-44.6,1.6
		c-15.4,0-31.5-0.1-45.7-7c-4.7-2.1-8.9-5.2-13.7-7.3c-2.9-1.4-6.1,0.1-8.4,2c-5.3,4.2-9.5,9.5-13.6,14.8
		c-3.8-5.1-7.5-10.3-11.2-15.4c5.7-5.6,12.1-10.4,19.1-14.1c0-13.3,0-26.6,0-39.9c-6-0.1-12,0-18,0
		C111.6,916.1,111.6,910.6,111.6,905z"/>
	<path fill="#050505" d="M290.4,911.3c4.5,0.5,8.9,0.8,13.4,1.2c-0.5,8.9-1.8,17.7-3.4,26.4c4,5.7,8.1,11.3,11.6,17.4
		c0-14.1,0-28.2,0-42.3c4.7,0,9.3,0,14,0c0,25.5,0,51.1,0,76.7c-4.7,0-9.3,0-14,0c0-2.4,0-4.9,0-7.3c-16,1.1-32,2.3-48,3.1
		c0-23.9,0-47.8,0-71.7c4.8,0,9.6,0,14.4,0c0.1,14.6-0.1,29.2,0.1,43.8C287.9,944.8,289,927.4,290.4,911.3 M286.8,970.4
		c-2.6-3-5.4-5.9-8.4-8.5c0,3.2,0,6.5,0,9.7c11.2-0.6,22.4-0.9,33.6-1.7c0-3.4,0-6.9,0-10.3c-2.9,2.7-5.9,5.4-8.8,8.1
		c-2.2-4.5-4.7-8.9-7.3-13.2C293.6,960.2,290.5,965.6,286.8,970.4z"/>
	<path fill="#050505" d="M457.8,914.8c29.5,0,59.1,0,88.6,0c0,4.9,0,9.7,0,14.6c-12.1,0-24.3,0-36.4,0c0,4.4,0,8.8,0,13.2
		c9.6,0,19.1,0,28.7,0c0,4.6,0,9.2,0,13.8c-9.6,0-19.1,0-28.7,0c0,5.8,0,11.5,0,17.3c13.5,0.5,27,0.1,40.6,0.3
		c-2.4,4.9-3.9,10.3-4.8,15.7c-15.1-0.6-30.5,1.4-45.4-1.8c-11-2.3-20.4-9.8-25.8-19.6c-3.7,8.7-8.9,16.8-15.7,23.4
		c-4.1-4-8.5-7.6-13.2-10.8c14-11.4,18.9-29.9,20.9-47.1c5.4,0.7,10.9,1.3,16.3,2c-0.7,5.1-1.7,10.1-2.7,15.1
		c2.2,7,6.7,13.4,12.7,17.6c0.1-13,0-26,0-39c-11.7,0-23.5,0-35.2,0C457.8,924.5,457.8,919.7,457.8,914.8z"/>
	<path fill="#050505" d="M332.6,921.3c15.8,0.1,31.6,0,47.4,0c2,0.1,4-0.5,5.9-1c4.1,2.6,8.2,5.3,12.3,7.9
		c-7.2,14.5-16.5,27.9-26.5,40.6c4.1,3.2,8.1,6.6,12,10.1c-3.4,4.7-6.8,9.4-10.2,14.1c-12.8-12.8-27.3-23.6-41.3-35.1
		c3.2-4,6.2-8.1,9.4-12.1c5.6,4.2,11.1,8.5,16.6,12.8c5.4-7,10.6-14.1,15.2-21.6c-13.6,0-27.3,0-40.9,0
		C332.6,931.8,332.6,926.5,332.6,921.3z"/>
	<path fill="#050505" d="M652.7,932.4c5.7-2.3,11.3-4.8,17-7.1c9.8,14,19.2,28.6,25,44.8c-6.2,2.8-12.5,5.5-18.7,8.3
		C670.8,962,662.1,946.9,652.7,932.4z"/>
	<path fill="#050505" d="M582,925.9c6.3,1.7,12.7,3.3,19,5c-6.6,17.2-16.2,33.4-28.5,47.2c-5.3-4-10.9-7.7-16.7-10.8
		C567.8,955.9,576.5,941.4,582,925.9z"/>
</g>
<g id="_x23_ffb540ff">
	<path fill="#FFB540" d="M83.9,100.9C94.2,91.4,108,86,122,86c186,0,372,0,558,0c9-0.2,18.3,0,26.8,3.3
		c21.8,7.5,37.5,29.6,37.1,52.7c0,228.3,0,456.7,0,685c-226,0-452,0-678,0c0-228.3,0-456.7,0-685C65.9,126.6,72.6,111.3,83.9,100.9
		 M192.8,258.8c-12.6,8.8-25.2,18-39.7,23.4c-0.1,15.3-0.1,30.6,0,45.9c17.9-9.4,36-18.6,53-29.7c0.2,79.1,0,158.2,0.1,237.3
		c16.2-0.1,32.3,0,48.5,0c-0.1-95.5-0.1-191,0-286.5c-15.9,0-31.7-0.2-47.6,0.1C201.6,251.1,197.7,255.8,192.8,258.8 M315.6,252.6
		c-15.4,6.5-26.4,22.5-26.4,39.4c-0.1,66.4,0,132.7,0,199.1c-0.2,6.6,0.7,13.3,3.5,19.4c6.2,14.8,21.3,25.2,37.3,25.8
		c38.3,0.6,76.7,0.8,115,0.8c8.3-0.1,16.9,0.8,24.9-2c16.7-5.3,29.8-22,29.1-39.8c-0.1-30.7,0-61.4-0.1-92.1
		c-0.9-18.7-18.4-34.4-37-34.3c-37.5-0.1-75-0.1-112.6,0c0-22.2-0.3-44.4-0.1-66.6c0.2-7.9,7.9-14,15.7-13.3
		c41.6,1.2,83.1,1,124.7,1c0-13.5-0.1-27.1,0-40.6c-51.9-0.1-103.8,0-155.7,0C327.7,248.9,321.4,250,315.6,252.6 M581.3,323
		c-0.1,16.5,0,33,0,49.5c-15.4,0.1-30.8,0-46.3,0c-3.1-0.4-6.4,2.3-6.3,5.5c-0.1,7.7-0.1,15.4,0,23.1c-0.1,3.2,3.1,5.9,6.3,5.5
		c15.4,0,30.8-0.1,46.3,0c0.1,16.5,0,33,0,49.5c-0.3,3.1,2.6,6.1,5.7,5.8c8,0.1,16,0.1,24,0c3,0.2,5.7-2.8,5.5-5.8
		c0-16.5,0-33,0-49.5c15.5-0.2,31,0,46.6-0.1c3,0.3,6.1-2.4,6-5.5c0.1-7.7,0.1-15.4,0-23.1c0.1-3.1-3-5.8-6-5.4
		c-15.5-0.1-31,0.1-46.6-0.1c0.1-15.8,0-31.6,0.1-47.5c-0.1-2,0.3-4.5-1.5-5.9c-1.6-2.3-4.6-1.9-7-1.9c-7,0.1-14.1-0.1-21.1,0.1
		C583.8,316.9,580.9,319.9,581.3,323 M187.9,685.9c-11.8,8.5-18,22.9-19.1,37.1c-1.4,14.9,2.4,31.1,13.4,41.9
		c9.8,10,24.3,13.6,37.9,13.1c10.1-0.3,20.9-3.4,27.7-11.3c5.4-6.1,7.2-14.3,8.2-22.2c-1.8-0.2-3.7-0.5-5.6-0.7
		c-1.4,7-3.3,14.7-8.8,19.6c-7.2,6.1-17.4,7.1-26.3,5.4c-9.8-1.8-17.8-9.3-21.7-18.3c-4.4-10.3-5.1-21.9-3.7-33
		c1.7-12.1,7.2-24.2,17.4-31.5c8.8-5.9,21.7-5.3,29.3,2.4c7.2,6.3,9.6,15.8,13,24.3c2.1-0.5,5.4-1,4.9-3.9
		c-0.1-10.4-0.7-20.8-0.7-31.2c-1.6-0.1-3.1-0.2-4.6-0.3c-1,1.3-1.9,2.7-2.9,4.1c-6.1-1.8-12.1-4.2-18.4-5.1
		C213.8,674.5,199.3,677.8,187.9,685.9 M302.8,680.8c-9.1,23.2-18,46.6-27.2,69.8c-2.5,5.8-4.9,12-9.6,16.4
		c-2.6,2.5-6.4,2.8-9.7,3.5c0.7,2,0.8,5.6,3.8,5.2c9.3,0.1,18.6,0.1,27.9,0c3,0.4,3.1-3.1,3.7-5.1c-3.4-0.9-7.8-1.1-9.9-4.4
		c-2.4-3.4-1.1-7.8,0-11.4c2-5.6,4.3-11,6.3-16.5c9.1,0,18.2-0.1,27.4,0.1c2.4,6.5,5.3,12.8,7.8,19.3c1,2.9,1.9,6.6-0.4,9.1
		c-3,3.1-7.6,2.8-11.5,3.7c0.6,2,0.7,5.7,3.8,5.3c13.3,0.2,26.7,0,40,0.1c1.6-0.2,3.8,0.3,4.9-1.3c1.4-1.2,0.4-3,0-4.3
		c-3.2-0.8-6.7-0.8-9.6-2.5c-3.8-2.8-5.6-7.5-7.5-11.6c-10.8-26-21.6-51.9-32.3-78C307.7,678.4,303.6,677,302.8,680.8 M361.8,678.3
		c-0.4,1.7-0.7,3.4-1.1,5.2c4,0.8,8.8,0.8,11.7,4.1c2.8,3.5,2.6,8.2,2.8,12.4c0,18,0,36,0,54c-0.2,4.6-0.1,10.1-3.9,13.3
		c-2.7,2.6-6.7,2.1-10.1,2.9c-0.9,1.8,0.3,3.7,0.5,5.5c15.8,0.2,31.5,0,47.3,0.1c9,0,18.2-0.4,26.9-2.9c10.4-3,18.8-11.1,23-21
		c5.8-13.5,5.6-29.4,0.2-43c-5-12.7-15.4-23.3-28.4-27.6c-9.5-3.3-19.7-3-29.7-3.1C387.9,678.3,374.9,678,361.8,678.3 M472.1,682.8
		c3.2,2.1,7.8,1.5,10.5,4.5c3,3.5,2.8,8.3,3,12.6c0.1,16.4,0,32.7,0,49.1c-0.2,5.3,0.4,11-1.9,15.9c-2.6,4.8-8.6,4.9-13.3,5.6
		c0.7,1.6,0.9,3.5,2.2,4.7c1.6,0.8,3.5,0.5,5.2,0.6c13.4-0.2,26.8,0.1,40.3-0.2c0.4-1.7,0.7-3.5,1.1-5.2c-3.8-0.6-8.2-0.6-11.2-3.5
		c-3.1-3.1-3.2-7.8-3.3-11.9c0-8.4,0-16.8,0-25.2c7.9-0.1,15.9,0.2,23.8-0.4c7-0.7,14.2-3.5,18.6-9.2c4.2-5.4,5.1-12.6,4.2-19.1
		c-1.4-10.9-10.8-20.1-21.5-21.8c-5.9-1-11.9-1-17.8-1c-12.3,0.1-24.6-0.1-37,0C472.8,677.8,469.5,681.2,472.1,682.8 M597.1,678.2
		c-9.3,23.7-18.4,47.5-27.7,71.2c-2.5,6.1-4.9,12.6-9.7,17.3c-2.6,2.7-6.6,3.1-10.1,3.9c0.7,1.9,0.6,5.5,3.5,5.2
		c9.3,0.2,18.6,0.1,27.9,0c3,0.5,3.4-3,4.2-5c-3.5-1-8-1.2-10.2-4.6c-2.3-3.4-1.1-7.6,0-11.2c2-5.6,4.4-11,6.3-16.6
		c9.1,0,18.3,0,27.4,0c2.5,6.5,5.3,12.8,7.8,19.3c1,3,2,6.8-0.5,9.3c-3,2.9-7.4,2.7-11.2,3.5c0.4,1.7,0.7,3.5,1.1,5.2
		c12.4,0.3,24.8,0,37.2,0.2c3.1,0,6.3,0.2,9.4-0.4c1.1-1.4,1.4-3.3,1.9-4.9c-4.1-0.9-8.8-0.8-12.1-3.8c-3.2-3.2-4.8-7.4-6.6-11.4
		c-10.7-25.7-21.3-51.4-31.9-77.1C601.5,678.2,599.3,678.2,597.1,678.2z"/>
	<path fill="#FFB540" d="M349.8,409.3c26.4,0.2,52.8,0.4,79.2,0.4c4.8-0.1,9.7,1.6,12.8,5.3c2.9,3.2,3.8,7.6,3.7,11.8
		c-0.1,16.4,0,32.7,0,49.1c0.1,6.3-3.5,12.5-9.1,15.4c-4.7,2.6-10.3,1.9-15.4,2c-17.4-0.2-34.7-0.2-52.1-0.3
		c-5.5,0.1-11.1-2.1-14.4-6.5c-3.2-3.7-3.9-8.8-3.8-13.5C350.3,451.8,350.1,430.5,349.8,409.3z"/>
	<path fill="#FFB540" d="M394.3,684.6c9.1-0.2,18.8-0.5,27,4.2c11.4,6.3,18.4,18.8,20.4,31.4c2.4,14.5-0.4,30.7-10.9,41.6
		c-4.3,4.8-10.6,7.4-16.9,7.8c-4.6,0.3-9.5,0.4-13.5-1.9c-3.1-1.7-5-5-5.5-8.4c-0.8-4.7-0.5-9.5-0.5-14.2
		C394.3,724.9,394.3,704.7,394.3,684.6z"/>
	<path fill="#FFB540" d="M504.8,684.6c6.2,0,13.2-1,18.5,3.1c10.2,7.7,10.6,26-0.5,33.2c-5.4,3.2-12,2.4-18,2.6
		C504.8,710.5,504.8,697.5,504.8,684.6z"/>
	<path fill="#FFB540" d="M290.9,731.2c3.5-9.1,6.8-18.3,10.6-27.4c3.7,9.1,7.5,18.2,11,27.4C305.3,731.3,298.1,731.2,290.9,731.2z"
		/>
	<path fill="#FFB540" d="M594.5,703.8c3.9,9,7.5,18.2,11.1,27.4c-7.2,0.1-14.4,0-21.6,0C587.5,722,591,712.9,594.5,703.8z"/>
</g>
<g id="_x23_fefefeff">
	<path fill="#FEFEFE" d="M57.4,20.6c2.8-0.5,5.7-0.6,8.6-0.6c226,0,452,0,678,0c9-0.1,18.1,2.3,25.6,7.4C782.1,35.5,790.1,50,790,65
		c0,302.7,0,605.4,0,908.1c0.3,18.5-12.3,36.3-29.8,42.3c-5.2,1.9-10.7,2.7-16.2,2.7c-226.4,0-452.7,0-679,0
		c-18.3,0.3-35.7-12-42-29.1c-2.1-5.4-3-11.2-2.9-16.9c0-302.4,0-604.7,0-907C19.6,43.7,36.4,23.9,57.4,20.6 M83.9,100.9
		c-11.3,10.4-18,25.7-17.9,41c0,228.3,0,456.7,0,685c226,0,452,0,678,0c0-228.3,0-456.7,0-685c0.3-23.1-15.3-45.2-37.1-52.7
		C698.3,86,689,85.8,680,86c-186,0-372,0-558,0C108,86,94.2,91.4,83.9,100.9 M326.6,895.6c-6.8,0-13.6,0-20.4,0c0-4.2,0-8.4,0-12.6
		c7.1,0,14.1,0,21.2,0c0-4.7,0-9.3,0-14c-7.1,0-14.1,0-21.2,0c0-5.4,0-10.8,0-16.2c-5.2,0-10.4,0-15.6,0c0,14.3,0,28.5,0,42.8
		c-2.6,0-5.3,0-7.9,0c-0.1-11.6,0-23.2,0-34.8c-4.9,0-9.8,0-14.7,0c0,11.6,0,23.2,0,34.8c-2.5,0-4.9,0-7.4,0c0,4.6,0,9.2,0,13.8
		c22.6,0,45.3-0.1,67.9,0.1c0.1-0.8,0.3-2.3,0.3-3c2,1.9,3.9,4.1,5.7,6.2c11.6-10.2,21.2-22.5,28.6-36c7.5,13.2,16.2,25.7,27.1,36.2
		c3.9-5.2,8.4-9.9,13.3-14.1c-13.3-10.5-24.3-23.8-32.4-38.7c0.5-1.5,1.1-2.9,1.6-4.4c-5.4-1.7-10.8-3.2-16.1-4.9
		C350.1,867.7,339.9,883.2,326.6,895.6 M160.3,861.5c2,4.5,3.5,9.2,4.5,14c9.7,0,19.3-1,29-1.6c0,4.2,0,8.3,0,12.5
		c-13.2,0-26.3,0-39.5,0c0,5.2,0,10.4,0,15.7c13.2,0,26.3,0,39.5,0c0,4.6,0,9.2,0,13.8c-9.6,0-19.2,0-28.8,0c0,15.5,0,30.9,0,46.4
		c25.5,0,50.9,0,76.4,0c0-15.5,0-30.9,0-46.4c-9.8,0-19.6,0-29.4,0c0-4.6,0-9.2,0-13.8c12.9,0,25.8,0,38.7,0c0-5.2,0-10.5,0-15.7
		c-12.9,0-25.8,0-38.7,0c0-4.8,0-9.6,0-14.3c10.1-1.4,20.2-2.9,30.1-5.3c-2.9-4.9-5.7-10-8.8-14.8
		C209.3,857.4,184.8,859.8,160.3,861.5 M425.3,851.6c0,9.4,0,18.8,0,28.2c-5.4,0-10.9,0-16.3,0c0,5.5,0,11.1,0,16.6
		c5.4,0,10.9,0,16.3,0c0.1,8.9,0,17.7,0,26.6c-5.9,1.4-11.8,3.1-17.8,4.3c1.3,5.8,2.7,11.6,4.1,17.5c4.6-1.2,9.1-2.6,13.8-3.9
		c-0.1,10.7,0.3,21.5-0.2,32.2c-4.9,0.5-9.8,0.3-14.7,0.3c2.2,5.2,3.8,10.8,4.7,16.4c6,0,12.1,0.2,17.8-1.9c3.3-1.3,6.6-3.7,7.6-7.2
		c1.3-4,1.2-8.3,1.1-12.5c0-10.7,0-21.4,0-32c5.3-1.6,10.6-3.2,15.9-4.8c-0.8-5.4-1.5-10.8-2.4-16.2c-4.5,1.2-9,2.4-13.5,3.6
		c0-7.4,0-14.8,0-22.2c5,0,10,0,15,0c0-5.5,0-11,0-16.6c-5,0-10,0-15,0c-0.1-9.2,0.1-18.4-0.1-27.6l-0.5-0.6
		C435.8,851.5,430.6,851.6,425.3,851.6 M113.6,866c8.1,7.7,16,15.6,22.2,24.9c4.7-3.7,9.3-7.6,14-11.4c-6.6-8.9-14.6-16.5-23-23.7
		C122.4,859.3,118,862.6,113.6,866 M465,856.3c0,17.3,0,34.6,0,51.8c24.7,0,49.3,0,74,0c0-17.3,0-34.6,0-51.8
		C514.3,856.3,489.7,856.3,465,856.3 M574.3,861c0,6,0,12,0,18c35.3,0,70.6,0,105.8,0c0-6,0-12,0-18C644.9,861,609.6,861,574.3,861
		 M348.2,901.7c4.6,5.9,8.6,12.3,12.5,18.7c4.7-2.5,9.4-5.1,14.1-7.5c-3.8-6.3-8.2-12-12.9-17.6
		C357.3,897.3,352.8,899.5,348.2,901.7 M560.6,897c0,6.1,0,12.1,0,18.2c19.1,0,38.3,0,57.4,0c0,18.3,0.1,36.5,0,54.8
		c0.2,1.3-0.7,2.9-2.2,2.9c-7.9,0.3-15.8,0.1-23.7-0.3c2.8,6.1,5,12.5,6.3,19.1c8.8-0.1,17.7,0.3,26.3-1.8c4.2-1.1,8.8-3.1,10.8-7.2
		c2.3-4.8,1.9-10.4,2.1-15.6c0-17.3,0-34.6,0-51.9c18.8,0,37.7,0,56.5,0c0-6.1,0-12.1,0-18.2C649.7,897,605.1,897,560.6,897
		 M111.6,905c0,5.6,0,11.1,0,16.7c6,0,12-0.1,18,0c0,13.3,0,26.6,0,39.9c-7,3.7-13.5,8.5-19.1,14.1c3.8,5.1,7.5,10.3,11.2,15.4
		c4.2-5.3,8.4-10.6,13.6-14.8c2.3-1.8,5.5-3.4,8.4-2c4.8,2,9,5.1,13.7,7.3c14.1,6.9,30.3,7,45.7,7c14.9-0.3,29.8-0.7,44.6-1.6
		c0.8-6,2.5-11.9,4.7-17.5c-21.3,2.3-42.8,3.8-64.3,3c-9-0.6-18.1-1.4-26.4-5c-5.1-2.3-9.9-5.2-14.9-7.9c-0.3-18.2,0-36.4-0.1-54.6
		C135,905,123.3,905,111.6,905 M290.4,911.3c-1.4,16.2-2.5,33.5-12,47.4c-0.2-14.6,0-29.2-0.1-43.8c-4.8,0-9.6,0-14.4,0
		c0,23.9,0,47.8,0,71.7c16-0.8,32-2,48-3.1c0,2.4,0,4.9,0,7.3c4.7,0,9.3,0,14,0c0-25.5,0-51.1,0-76.7c-4.7,0-9.3,0-14,0
		c0,14.1,0,28.2,0,42.3c-3.4-6.1-7.5-11.7-11.6-17.4c1.5-8.8,2.9-17.6,3.4-26.4C299.4,912,294.9,911.7,290.4,911.3 M457.8,914.8
		c0,4.9,0,9.7,0,14.6c11.7,0,23.5,0,35.2,0c0,13,0.1,26,0,39c-6-4.3-10.5-10.6-12.7-17.6c1-5,2-10,2.7-15.1
		c-5.4-0.7-10.9-1.3-16.3-2c-2,17.2-7,35.7-20.9,47.1c4.7,3.2,9.1,6.9,13.2,10.8c6.8-6.6,12-14.7,15.7-23.4
		c5.4,9.8,14.7,17.3,25.8,19.6c14.9,3.2,30.3,1.3,45.4,1.8c0.9-5.4,2.4-10.7,4.8-15.7c-13.5-0.1-27.1,0.3-40.6-0.3
		c0-5.8,0-11.6,0-17.3c9.6,0,19.1,0,28.7,0c0-4.6,0-9.2,0-13.8c-9.6,0-19.1,0-28.7,0c0-4.4,0-8.8,0-13.2c12.1,0,24.3,0,36.4,0
		c0-4.9,0-9.7,0-14.6C516.9,914.8,487.3,914.8,457.8,914.8 M332.6,921.3c0,5.2,0,10.5,0,15.7c13.6,0,27.3,0,40.9,0
		c-4.6,7.5-9.8,14.7-15.2,21.6c-5.5-4.3-11-8.6-16.6-12.8c-3.2,4-6.3,8.1-9.4,12.1c14,11.5,28.5,22.3,41.3,35.1
		c3.4-4.7,6.8-9.4,10.2-14.1c-4-3.4-7.9-6.8-12-10.1c10-12.8,19.3-26.1,26.5-40.6c-4.1-2.6-8.2-5.3-12.3-7.9c-1.9,0.5-3.9,1.1-5.9,1
		C364.2,921.3,348.4,921.4,332.6,921.3 M652.7,932.4c9.4,14.4,18,29.6,23.2,46.1c6.2-2.8,12.5-5.5,18.7-8.3
		c-5.8-16.2-15.2-30.8-25-44.8C664,927.7,658.4,930.1,652.7,932.4 M582,925.9c-5.5,15.5-14.2,30-26.2,41.4
		c5.9,3.1,11.5,6.8,16.7,10.8c12.3-13.8,21.9-29.9,28.5-47.2C594.7,929.2,588.3,927.6,582,925.9z"/>
	<path fill="#FEFEFE" d="M192.8,258.8c4.9-3,8.8-7.7,14.2-9.6c15.9-0.3,31.7,0,47.6-0.1c-0.1,95.5-0.1,191,0,286.5
		c-16.2,0-32.3-0.1-48.5,0c0-79.1,0.1-158.2-0.1-237.3c-17,11.1-35.1,20.3-53,29.7c-0.1-15.3-0.2-30.6,0-45.9
		C167.6,276.9,180.2,267.6,192.8,258.8z"/>
	<path id="_x36_" fill="#FEFEFE" d="M315.6,252.6c5.8-2.6,12.1-3.7,18.4-3.5c51.9,0.1,103.8,0,155.7,0c-0.1,13.5-0.1,27.1,0,40.6
		c-41.6,0-83.1,0.2-124.7-1c-7.7-0.8-15.5,5.3-15.7,13.3c-0.2,22.2,0.2,44.4,0.1,66.6c37.5,0,75,0,112.6,0
		c18.6-0.1,36.1,15.6,37,34.3c0,30.7-0.1,61.4,0.1,92.1c0.7,17.8-12.4,34.5-29.1,39.8c-8,2.8-16.6,1.9-24.9,2
		c-38.4,0.1-76.7-0.1-115-0.8c-16-0.6-31.1-11-37.3-25.8c-2.7-6.1-3.7-12.8-3.5-19.4c0.1-66.4,0-132.7,0-199.1
		C289.2,275.1,300.2,259.1,315.6,252.6 M349.8,409.3c0.3,21.2,0.5,42.4,0.8,63.7c0,4.7,0.7,9.8,3.8,13.5c3.4,4.4,9,6.6,14.4,6.5
		c17.4,0.1,34.7,0.1,52.1,0.3c5.1,0,10.7,0.6,15.4-2c5.6-2.9,9.2-9.1,9.1-15.4c0-16.3,0-32.7,0-49.1c0.1-4.2-0.8-8.6-3.7-11.8
		c-3.1-3.8-8.1-5.4-12.8-5.3C402.6,409.7,376.2,409.5,349.8,409.3z"/>
	<path fill="#FEFEFE" d="M581.3,323c-0.3-3.1,2.6-6.1,5.7-5.8c7-0.1,14.1,0.1,21.1-0.1c2.4,0.1,5.4-0.4,7,1.9
		c1.7,1.5,1.4,3.9,1.5,5.9c-0.1,15.8,0,31.6-0.1,47.5c15.5,0.2,31,0,46.6,0.1c3-0.3,6.1,2.4,6,5.4c0.1,7.7,0.1,15.4,0,23.1
		c0.1,3.1-3,5.8-6,5.5c-15.5,0.1-31.1-0.1-46.6,0.1c0.1,16.5,0.1,33,0,49.5c0.2,3-2.4,6-5.5,5.8c-8,0.1-16,0.1-24,0
		c-3.1,0.3-6-2.7-5.7-5.8c-0.1-16.5,0-33,0-49.5c-15.4-0.1-30.8,0-46.3,0c-3.1,0.4-6.4-2.3-6.3-5.5c-0.1-7.7-0.1-15.4,0-23.1
		c-0.1-3.2,3.1-5.9,6.3-5.5c15.4,0,30.8,0.1,46.3,0C581.3,356,581.2,339.5,581.3,323z"/>
	<rect x="66" y="624.9" fill="#FFB540" width="678" height="202.1"/>
	<path fill="#FEFEFE" d="M177,685.9c11.4-8,26-11.4,39.8-9.4c6.3,1,12.3,3.3,18.4,5.1c1-1.4,1.9-2.7,2.9-4.1
		c1.5,0.1,3.1,0.2,4.6,0.3c0,10.4,0.5,20.8,0.7,31.2c0.5,2.9-2.8,3.4-4.9,3.9c-3.3-8.5-5.8-18-13-24.3c-7.5-7.7-20.5-8.3-29.3-2.4
		c-10.1,7.2-15.7,19.4-17.4,31.5c-1.3,11-0.7,22.6,3.7,33c3.8,9,11.9,16.5,21.7,18.3c9,1.7,19.2,0.7,26.3-5.4
		c5.6-5,7.4-12.6,8.8-19.6c1.9,0.2,3.7,0.5,5.6,0.7c-1,7.9-2.8,16.1-8.2,22.2c-6.8,7.9-17.6,11-27.7,11.3
		c-13.6,0.5-28.2-3.1-37.9-13.1c-11-10.7-14.8-27-13.4-41.9C159,708.8,165.1,694.4,177,685.9z"/>
	<path fill="#FEFEFE" d="M297.2,680.9c0.8-3.8,4.9-2.5,7.8-2.7c10.7,26,21.5,52,32.3,78c1.9,4.2,3.7,8.8,7.5,11.6
		c2.9,1.7,6.4,1.7,9.6,2.5c0.4,1.3,1.5,3.2,0,4.3c-1.1,1.6-3.3,1-4.9,1.3c-13.3-0.1-26.7,0.1-40-0.1c-3.1,0.4-3.1-3.2-3.8-5.3
		c3.9-0.9,8.5-0.6,11.5-3.7c2.3-2.5,1.4-6.3,0.4-9.1c-2.4-6.5-5.3-12.8-7.8-19.3c-9.1-0.1-18.2,0-27.4-0.1c-2,5.5-4.4,11-6.3,16.5
		c-1.1,3.6-2.4,8,0,11.4c2.1,3.3,6.5,3.5,9.9,4.4c-0.6,2-0.7,5.6-3.7,5.1c-9.3,0.1-18.6,0.1-27.9,0c-3,0.4-3.1-3.2-3.8-5.2
		c3.3-0.8,7.1-1.1,9.7-3.5c4.7-4.4,7.1-10.6,9.6-16.4C279.2,727.4,288.1,704.1,297.2,680.9 M285.3,731.2c7.2,0,14.4,0.1,21.6,0
		c-3.6-9.2-7.3-18.2-11-27.4C292.1,712.9,288.8,722.1,285.3,731.2z"/>
	<path fill="#FEFEFE" d="M361.8,678.3c13-0.3,26.1,0,39.2-0.1c9.9,0.1,20.1-0.2,29.7,3.1c13,4.3,23.5,14.9,28.4,27.6
		c5.4,13.6,5.6,29.5-0.2,43c-4.1,9.9-12.6,18-23,21c-8.7,2.5-17.9,2.9-26.9,2.9c-15.8-0.1-31.5,0.1-47.3-0.1
		c-0.3-1.8-1.4-3.7-0.5-5.5c3.4-0.8,7.4-0.3,10.1-2.9c3.9-3.2,3.7-8.7,3.9-13.3c0-18,0-36,0-54c-0.2-4.2-0.1-8.9-2.8-12.4
		c-2.9-3.3-7.7-3.3-11.7-4.1C361.1,681.8,361.4,680.1,361.8,678.3 M394.3,684.6c0.1,20.1,0,40.3,0,60.4c0,4.7-0.2,9.5,0.5,14.2
		c0.5,3.4,2.4,6.7,5.5,8.4c4.1,2.3,9,2.2,13.5,1.9c6.3-0.4,12.6-3,16.9-7.8c10.5-10.9,13.3-27.1,10.9-41.6c-2-12.7-9-25.1-20.4-31.4
		C413.1,684.1,403.4,684.4,394.3,684.6z"/>
	<path fill="#FEFEFE" d="M470.4,682.8c-2.6-1.6,0.7-5,2.9-4.5c12.3-0.1,24.6,0,37,0c5.9,0,11.9,0,17.8,1
		c10.8,1.7,20.1,10.9,21.5,21.8c0.9,6.6,0,13.8-4.2,19.1c-4.4,5.7-11.5,8.6-18.6,9.2c-7.9,0.6-15.9,0.4-23.8,0.4
		c0,8.4,0,16.8,0,25.2c0.1,4.1,0.3,8.8,3.3,11.9c3,2.9,7.4,2.9,11.2,3.5c-0.4,1.7-0.7,3.5-1.1,5.2c-13.4,0.3-26.8,0-40.3,0.2
		c-1.7-0.1-3.6,0.2-5.2-0.6c-1.3-1.2-1.5-3.1-2.2-4.7c4.7-0.8,10.7-0.9,13.3-5.6c2.3-4.9,1.7-10.6,1.9-15.9c-0.1-16.3,0-32.7,0-49.1
		c-0.3-4.3-0.1-9.2-3-12.6C478.2,684.3,473.6,684.9,470.4,682.8 M503.1,684.6c0,13,0,25.9,0,38.9c6-0.2,12.6,0.6,18-2.6
		c11-7.2,10.7-25.5,0.5-33.2C516.3,683.6,509.3,684.6,503.1,684.6z"/>
	<path fill="#FEFEFE" d="M603.1,678.2c2.2,0,4.4,0,6.7,0c10.6,25.7,21.3,51.4,31.9,77.1c1.8,4,3.4,8.3,6.6,11.4
		c3.3,3,8,2.8,12.1,3.8c-0.5,1.7-0.8,3.5-1.9,4.9c-3.1,0.6-6.3,0.3-9.4,0.4c-12.4-0.1-24.8,0.1-37.2-0.2c-0.4-1.7-0.7-3.5-1.1-5.2
		c3.8-0.8,8.3-0.7,11.2-3.5c2.4-2.5,1.5-6.4,0.5-9.3c-2.4-6.5-5.3-12.8-7.8-19.3c-9.1,0-18.3,0-27.4,0c-1.9,5.6-4.3,11-6.3,16.6
		c-1.1,3.6-2.3,7.8,0,11.2c2.1,3.5,6.6,3.6,10.2,4.6c-0.8,2.1-1.2,5.5-4.2,5c-9.3,0.1-18.6,0.1-27.9,0c-2.9,0.4-2.8-3.3-3.5-5.2
		c3.5-0.8,7.4-1.2,10.1-3.9c4.8-4.7,7.2-11.2,9.7-17.3C584.7,725.6,593.8,701.9,603.1,678.2 M600.6,703.8c-3.5,9.1-7,18.3-10.5,27.4
		c7.2,0,14.4,0.1,21.6,0C608.1,722,604.5,712.8,600.6,703.8z"/>
	<path fill="#FEFEFE" d="M481.7,868.7c13.4,0,26.8,0,40.1,0c0,2.4,0,4.9,0,7.3c-13.4,0-26.8,0-40.1,0
		C481.6,873.5,481.6,871.1,481.7,868.7z"/>
	<path fill="#FEFEFE" d="M481.7,888c13.4,0,26.8,0,40.1,0c0,2.4,0,4.9,0,7.3c-13.4,0-26.8,0-40.1,0
		C481.6,892.9,481.6,890.4,481.7,888z"/>
	<path fill="#FEFEFE" d="M182,930c13.9,0,27.7,0,41.6,0c0,6,0,12,0,18c-13.9,0-27.7,0-41.6,0C182,942,182,936,182,930z"/>
	<path fill="#FEFEFE" d="M286.8,970.4c3.8-4.8,6.8-10.2,9.1-15.9c2.6,4.3,5.2,8.7,7.3,13.2c2.9-2.8,5.9-5.4,8.8-8.1
		c0,3.4,0,6.9,0,10.3c-11.2,0.8-22.4,1.2-33.6,1.7c0-3.2,0-6.5,0-9.7C281.4,964.6,284.2,967.4,286.8,970.4z"/>
</g>
</svg>
