<?xml version="1.0" encoding="utf-8"?>
<!-- Generator: Adobe Illustrator 18.0.0, SVG Export Plug-In . SVG Version: 6.00 Build 0)  -->
<!DOCTYPE svg PUBLIC "-//W3C//DTD SVG 1.1//EN" "http://www.w3.org/Graphics/SVG/1.1/DTD/svg11.dtd">
<svg version="1.1" id="图层_1" xmlns="http://www.w3.org/2000/svg" xmlns:xlink="http://www.w3.org/1999/xlink" x="0px" y="0px"
	 viewBox="0 0 810 1038" enable-background="new 0 0 810 1038" xml:space="preserve">
<g id="_x23_050505ff">
	<path fill="#050505" d="M55.1,0h698.8c10.7,2.7,21.4,6.2,30.2,12.9c14,10.2,22.3,26.4,25.9,43.1v925.9c-2.1,6.8-3.5,13.9-6.9,20.2
		c-7.1,14.3-19.7,25.8-34.6,31.5c-4.7,1.9-9.7,2.9-14.6,4.4H56.1c-5.6-1.8-11.4-2.9-16.8-5.3c-15.6-6.7-28.4-19.7-34.7-35.5
		c-2-5-3.1-10.2-4.7-15.3V56.1C1.9,49,3.5,41.7,7.2,35.2c6.4-12.7,17.2-22.9,29.9-29C42.8,3.3,49.1,2,55.1,0 M57.4,20.6
		C36.4,23.9,19.6,43.7,20,65c0,300.7,0,601.3,0,902c0,5.3-0.1,10.8,1.1,16c3.3,14.9,14.8,27.7,29.3,32.6c9.5,3.5,19.7,2.2,29.6,2.4
		c221.7,0,443.3,0,665,0c19.3,0.3,37.7-13.4,43.1-32c2.8-8.7,1.7-18,1.9-27c0-298,0-596,0-894c0.1-14.9-7.9-29.5-20.4-37.6
		c-7.5-5-16.6-7.5-25.6-7.4c-226,0-452,0-678,0C63.1,20,60.2,20.1,57.4,20.6z"/>
	<path fill="#050505" d="M326.6,895.6c13.3-12.4,23.5-27.9,30.1-44.9c5.4,1.7,10.8,3.2,16.1,4.9c-0.5,1.5-1.1,2.9-1.6,4.4
		c8.1,14.8,19.1,28.2,32.4,38.7c-4.9,4.2-9.4,8.9-13.3,14.1c-10.9-10.5-19.7-23.1-27.1-36.2c-7.5,13.5-17,25.8-28.6,36
		c-1.8-2.1-3.5-4.1-5.4-6c-0.2,0.7-0.7,2.1-0.9,2.8c-22.6-0.1-45.1,0-67.7-0.1c0-4.6,0-9.2,0-13.8c2.5,0,4.9,0,7.4,0
		c0-11.6,0-23.2,0-34.8c4.9,0,9.8,0,14.7,0c0,11.6-0.1,23.2,0,34.8c2.6,0,5.3,0,7.9,0c0-14.3,0-28.5,0-42.8c5.2,0,10.4,0,15.6,0
		c0,5.4,0,10.8,0,16.2c7.1,0,14.1,0,21.2,0c0,4.7,0,9.3,0,14c-7.1,0-14.1,0-21.2,0c0,4.2,0,8.4,0,12.6
		C313,895.6,319.8,895.6,326.6,895.6z"/>
	<path fill="#050505" d="M160.3,861.5c24.4-1.7,48.9-4.1,72.9-9.5c3.3,4.7,6,9.8,8.9,14.8c-9.9,2.4-20,3.9-30.1,5.3
		c0,4.8,0,9.6,0,14.3c12.9,0,25.8,0,38.7,0c0,5.2,0,10.5,0,15.7c-12.9,0-25.8,0-38.7,0c0,4.6,0,9.2,0,13.8c9.8,0,19.6,0,29.4,0
		c0,15.5,0,30.9,0,46.4c-25.5,0-50.9,0-76.4,0c0-15.5,0-30.9,0-46.4c9.6,0,19.2,0,28.8,0c0-4.6,0-9.2,0-13.8c-13.2,0-26.3,0-39.5,0
		c0-5.2,0-10.5,0-15.7c13.2,0,26.3,0,39.5,0c0-4.2,0-8.3,0-12.5c-9.7,0.6-19.3,1.6-29,1.6C163.8,870.6,162.3,865.9,160.3,861.5
		 M182,930c0,6,0,12,0,18c13.9,0,27.7,0,41.6,0c0-6,0-12,0-18C209.7,930,195.9,930,182,930z"/>
	<path fill="#050505" d="M425.3,851.6c5.5,0,10.9,0,16.4,0c-0.1,9.4,0,18.8,0,28.2c5,0,10,0,15,0c0,5.5,0,11.1,0,16.6
		c-5,0-10,0-15,0c-0.1,7.4,0,14.8,0,22.2c4.5-1.2,9-2.4,13.5-3.6c0.9,5.4,1.7,10.8,2.5,16.2c-5.3,1.6-10.6,3.3-15.9,4.8
		c0,11.7,0,23.4,0,35c0,5.2-0.3,11.5-5,14.7c-6.2,4.4-14.3,3.9-21.6,4c-0.9-5.6-2.4-11.2-4.7-16.4c4.9,0,9.8,0.3,14.7-0.3
		c0.5-10.7,0.1-21.4,0.2-32.1c-4.6,1.2-9.1,2.6-13.8,3.8c-1.4-5.8-2.8-11.6-4-17.5c6-1.1,11.9-2.8,17.8-4.3c0-8.9,0-17.7,0-26.6
		c-5.4,0-10.9,0-16.3,0c0-5.5,0-11.1,0-16.6c5.4,0,10.9,0,16.3,0C425.4,870.4,425.4,861,425.3,851.6z"/>
	<path fill="#050505" d="M113.6,866c4.4-3.4,8.8-6.8,13.2-10.2c8.4,7.2,16.5,14.8,23,23.7c-4.7,3.7-9.3,7.6-14,11.3
		C129.6,881.6,121.6,873.7,113.6,866z"/>
	<path fill="#050505" d="M465,856.3c24.7,0,49.3,0,74,0c0,17.3,0,34.6,0,51.9c-24.7,0-49.3,0-74,0C465,890.9,465,873.6,465,856.3
		 M481.7,868.7c0,2.4,0,4.9,0,7.3c13.4,0,26.8,0,40.1,0c0-2.5,0-4.9,0-7.3C508.4,868.6,495,868.7,481.7,868.7 M481.7,888
		c0,2.4,0,4.9,0,7.3c13.4,0,26.8,0,40.1,0c0-2.5,0-4.9,0-7.3C508.4,888,495,888,481.7,888z"/>
	<path fill="#050505" d="M574.3,861c35.3,0,70.6,0,105.9,0c0,6,0,12,0,18c-35.3,0-70.6,0-105.9,0C574.3,873,574.3,867,574.3,861z"/>
	<path fill="#050505" d="M348.2,901.7c4.5-2.3,9.1-4.4,13.7-6.5c4.7,5.6,9.1,11.4,12.9,17.7c-4.7,2.4-9.3,5-13.9,7.4
		c-1.1-0.7-1.5-2-2.1-3C355.6,911.8,352,906.7,348.2,901.7z"/>
	<path fill="#050505" d="M560.6,897c44.5,0,89.1,0,133.6,0c0,6.1,0,12.1,0,18.2c-18.8,0-37.7,0-56.5,0c0,17.6,0,35.2,0,52.9
		c-0.2,5.3,0.2,11.2-2.8,15.8c-3,4.2-8.3,5.7-13.1,6.7c-7.7,1.4-15.5,1.1-23.3,1.2c-1.3-6.6-3.5-13-6.3-19
		c7.9,0.3,15.8,0.6,23.7,0.2c2,0,2.2-2.3,2.1-3.8c0-18,0-35.9,0-53.9c-19.1,0-38.3,0-57.4,0C560.6,909.1,560.6,903.1,560.6,897z"/>
	<path fill="#050505" d="M111.6,905c11.7,0,23.4,0,35.1,0c0.1,18.2-0.3,36.5,0.2,54.7c8.1,4.5,16.2,9.6,25.5,11.1
		c18.4,3.3,37.2,2,55.7,1c8.1-0.5,16.2-1.3,24.3-2.2c-2.1,5.7-3.9,11.5-4.7,17.5c-16.2,1-32.4,1.5-48.7,1.6
		c-14.1-0.1-28.8-0.7-41.6-7c-4.7-2.1-8.9-5.2-13.6-7.2c-2.9-1.4-6.1,0.1-8.4,1.9c-5.3,4.2-9.5,9.5-13.7,14.8
		c-3.8-5.1-7.4-10.3-11.2-15.4c5.7-5.6,12.1-10.4,19.2-14.1c0-13.3,0-26.6,0-39.9c-6-0.1-12,0-18.1,0
		C111.6,916.1,111.6,910.5,111.6,905z"/>
	<path fill="#050505" d="M290.4,911.2c4.5,0.5,8.9,0.8,13.4,1.2c-0.5,8.9-1.9,17.7-3.3,26.5c4,5.6,8.1,11.3,11.5,17.3
		c0-14.1,0-28.2,0-42.2c4.7,0,9.3,0,14,0c0,25.6,0,51.1,0,76.7c-4.7,0-9.3,0-14,0c0-2.4,0-4.9,0-7.3c-16,1.1-32,2.3-48,3.1
		c0-23.9,0-47.8,0-71.7c4.8,0,9.6,0,14.4,0c0.1,14.6-0.1,29.1,0.1,43.7C288,944.7,289,927.4,290.4,911.2 M286.8,970.4
		c-2.6-3-5.4-5.8-8.4-8.4c0,3.2,0,6.4,0,9.7c11.2-0.6,22.4-0.9,33.6-1.7c0-3.4,0-6.9,0-10.3c-3,2.7-5.9,5.3-8.8,8.1
		c-2.2-4.5-4.7-8.9-7.3-13.2C293.5,960.2,290.6,965.6,286.8,970.4z"/>
	<path fill="#050505" d="M457.8,914.8c29.5,0,59.1,0,88.6,0c0,4.9,0,9.7,0,14.6c-12.1,0-24.3,0-36.4,0c0,4.4,0,8.8,0,13.2
		c9.6,0,19.1,0,28.7,0c-0.1,4.6-0.1,9.2,0,13.8c-9.6,0-19.1,0-28.7,0c0,5.8,0,11.6,0,17.3c13.5,0.5,27,0.1,40.5,0.3
		c-2.4,5-3.9,10.3-4.8,15.7c-10.2-0.1-20.5,0-30.7-0.1c-10.2-0.3-21-2.1-29.3-8.4c-4.7-3.3-8.1-8.1-11.1-12.9
		c-3.8,8.7-8.9,16.8-15.7,23.3c-4.1-4-8.5-7.6-13.2-10.8c14-11.4,18.9-29.9,20.9-47.1c5.4,0.7,10.9,1.3,16.3,2
		c-0.7,5.1-1.7,10.1-2.7,15.1c2.1,7,6.6,13.4,12.7,17.6c0.1-13,0-26,0-39c-11.7,0-23.5,0-35.2,0
		C457.8,924.5,457.8,919.7,457.8,914.8z"/>
	<path fill="#050505" d="M332.6,921.3c13.5,0.1,26.9,0,40.4,0c4.3-0.1,8.8,0.5,13-1c4.1,2.7,8.1,5.3,12.2,7.9
		c-7.2,14.5-16.5,27.9-26.4,40.6c4.1,3.2,8,6.6,12,10.1c-3.4,4.7-6.8,9.4-10.1,14.1c-12.9-12.7-27.3-23.6-41.3-35.1
		c3.2-4,6.2-8.1,9.4-12.1c5.6,4.2,11.1,8.5,16.6,12.8c5.4-6.9,10.6-14.1,15.2-21.6c-13.6,0-27.3,0-40.9,0
		C332.6,931.8,332.6,926.5,332.6,921.3z"/>
	<path fill="#050505" d="M652.7,932.4c5.7-2.3,11.3-4.8,17-7.1c9.8,14,19.2,28.7,25,44.8c-6.2,2.8-12.5,5.5-18.7,8.3
		C670.8,962,662,946.9,652.7,932.4z"/>
	<path fill="#050505" d="M582,925.9c6.3,1.7,12.7,3.3,19,5c-6.6,17.2-16.2,33.4-28.4,47.2c-5.3-4-10.9-7.7-16.8-10.8
		C567.8,955.9,576.5,941.4,582,925.9z"/>
</g>
<g id="_x23_bd0000ff">
	<path fill="#BD0000" d="M104.8,87.9c5.3-1.5,10.7-2.3,16.2-2.6c188,0,376,0,564,0c14.6-0.3,29.7,4,40.6,14.1
		c3.6,3.7,7.7,7.1,10.2,11.7c7.2,10.8,9.3,24.1,8.9,36.9c0,200,0,400,0,600c0.1,26.6-0.1,53.2,0.1,79.8
		c-180.3-0.2-360.5,0-540.8-0.1c-46.3,0.1-92.5-0.1-138.8,0.1c0.2-102.9,0-205.9,0.1-308.8c0-124,0-248,0-372
		c-0.3-12.4,1.9-25.4,8.9-35.9C81.4,100.3,92.2,91.6,104.8,87.9 M329.5,253.7c-16.2,5.5-29.2,18.9-34.9,35c-6,15.3-5.8,32-5,48.1
		c1.1,10.9,3.8,21.8,9.5,31.2c5.8,9.5,13.9,17.3,22.5,24.1c-8.5,6.9-16.8,14.5-22.3,24.1c-8.7,15-11.6,32.7-10.3,49.8
		c1.2,19.3,9.5,38.2,23,52c10.8,10.7,26,15.5,40.9,16.4c6.7,0.1,13.4,1.3,20.1,1.2c20,0.3,40.1,1.1,60-1.2c9.5-1,19.1-2.6,28-6.4
		c7.8-3.5,14.6-9.4,19.4-16.5c11.1-15.4,17.1-34.4,17-53.4c0-15.6-3.1-31.6-11.5-44.9c-5.3-8.4-13-14.6-20.7-20.6
		c0.3-1.6,2.2-2.1,3.4-3.1c13.3-8.4,22.9-22.2,26.7-37.3c5.5-21.3,3.8-44.4-4.6-64.6c-4.7-11.3-11.9-22-22.2-28.8
		c-8.3-5.8-18.5-8-28.4-9c-15.7-0.9-31.4-0.6-47-0.7C371.8,249.2,350.2,247.8,329.5,253.7 M204.9,250.9
		c-16.2,11.9-32.3,24.6-51.2,32c0,14.6,0,29.2,0,43.8c13.4-6.6,26.5-14,39.5-21.3c4.6-2.4,8.5-6,13.4-7.7
		c0.2,79.2,0.1,158.3,0.1,237.5c15.7,0,31.5,0,47.2,0c0-95.1,0-190.2,0-285.3c-15,0-30.1,0-45.1,0
		C207.5,249.6,206.1,250.1,204.9,250.9 M581.9,323.9c0,16.3,0,32.7,0,49c-15.6,0.1-31.3,0-46.9,0c-2.7-0.2-4.2,2.5-5.8,4.3
		c-0.3,8.1-0.3,16.4,0,24.5c1.6,1.7,3.1,4.5,5.8,4.3c15.6,0,31.3-0.1,46.9,0c0.1,16.7,0,33.3,0,50c-0.1,2.3,2.2,4.4,4.2,5.1
		c8.3,0.2,16.6,0.1,24.9,0.1c2.2,0.2,3.6-1.9,4.8-3.4c0.4-17.2,0-34.5,0.2-51.7c15.7-0.1,31.3,0,47,0c2.3,0.3,3.6-1.9,5-3.3
		c0.6-4.5,0.1-9.2,0.3-13.7c-0.2-4.2,0.4-8.5-0.3-12.7c-1.4-1.4-2.7-3.6-5-3.3c-15.7,0-31.3,0-47,0c-0.1-16.7,0-33.3,0-50
		c0.2-2.3-2.1-4.4-4.1-5.1c-8-0.2-16,0-24-0.1C584.7,317.4,581.4,320.7,581.9,323.9 M186.1,687.2c-11.3,9.1-16.8,23.7-17.6,37.9
		c-0.8,14.3,3.1,29.6,13.6,39.8c9.5,9.7,23.7,13.4,36.9,13.1c10.2,0,21.1-3,28.3-10.7c5.7-6.1,7.7-14.6,8.6-22.8
		c-1.9-0.3-3.8-0.6-5.6-0.9c-1.4,7.1-3.2,14.8-8.9,19.8c-7.2,6-17.4,7-26.4,5.4c-7.5-1.5-14.1-6.3-18.4-12.6
		c-6.3-9.4-7.8-21.2-7.4-32.3c0.4-13.6,5.5-27.7,16.2-36.5c5.9-5,14.2-6.1,21.5-4.4c5.7,1.6,10.3,5.7,13.7,10.3
		c4.3,5.8,5.9,13,8.8,19.5c1.2-0.2,2.5-0.4,3.7-0.8c2.1-2.2,1-5.4,1-8.1c-0.2-8.8-0.5-17.6-0.5-26.4c-1.6,0-3.3,0-4.9,0
		c-0.8,1.3-1.6,2.6-2.5,4c-7.6-2.1-15-5.4-23.1-5.6C210,675.2,196.5,679,186.1,687.2 M303.7,678.6c-9.7,24.4-18.9,49-28.6,73.3
		c-2.4,5.6-4.9,11.5-9.6,15.5c-2.5,2.1-5.9,2.4-9,2.9c0.1,1.9,0.6,3.7,1.5,5.4c10.7,0,21.4,0,32.1,0c0.9-1.7,1.4-3.5,1.5-5.4
		c-3.4-0.7-7.7-0.9-9.7-4.2c-2.4-3.4-1.2-7.7,0-11.3c2-5.6,4.3-11,6.3-16.5c9.1,0.1,18.2,0,27.3,0c2.4,6.2,5,12.4,7.5,18.6
		c1,2.9,2.3,6.5,0.3,9.3c-2.7,3.7-7.8,3.3-11.8,4.1c0.1,1.9,0.6,3.7,1.5,5.4c15,0,29.9,0.1,44.9,0c2.9-0.2,2.9-3.4,2.4-5.5
		c-2.9-0.5-5.9-0.7-8.6-1.8c-3.2-1.4-5-4.6-6.6-7.5c-2.8-5.7-5.1-11.7-7.6-17.6c-9-21.7-18-43.4-26.9-65.1
		C308.3,678.3,305.8,677.7,303.7,678.6 M362.4,678.4c-1.7,1.2-1.3,3.4-1.6,5.2c4.4,0.5,9.9,0.8,12.4,5.1c2.4,4.6,1.9,10.1,2,15.2
		c0,17,0,34,0,51c-0.3,4-0.2,8.8-3.4,11.8c-2.9,3.1-7.5,2.9-11.4,3.5c0.4,1.8,0.9,3.6,1.5,5.4c11,0.3,22,0.1,33,0.1
		c11.7-0.1,23.5,0.6,35.1-1.5c7.5-1.2,14.8-4.5,20.3-9.9c9.6-9.3,13.3-23.3,12.7-36.4c-0.4-14.2-6.3-28.5-17.2-37.9
		c-8.5-7.6-19.8-11.3-31.1-11.7c-14.6-0.5-29.3-0.1-43.9-0.2C368.1,678.2,365.3,678,362.4,678.4 M471.1,681.7c2,3.5,6.9,2,9.9,4.3
		c4.7,3,4.4,9.2,4.6,14.1c0,17.9,0,35.9,0,53.8c-0.3,4.3,0.2,9.3-3.1,12.6c-2.9,3.3-7.6,3.2-11.7,3.8c0.2,2.1,0.5,5.3,3.3,5.4
		c13.9,0.1,27.9,0.1,41.8,0c3.1,0.3,3.1-3.4,3.2-5.5c-3.8-0.4-8.1-0.5-11.1-3.4c-2.8-2.9-3.1-7.1-3.3-10.9c0-8.7,0-17.5,0-26.2
		c7.7,0,15.4,0.1,23.1-0.3c7-0.6,14.2-3.2,18.8-8.8c4.7-5.5,5.6-13.3,4.6-20.3c-1.7-11-11.3-20-22.3-21.4c-6.6-1-13.3-0.8-20-0.8
		c-11.3,0-22.7,0-34,0C473.1,677.9,470.9,679.7,471.1,681.7 M597,678.2c-9.7,24.6-19.1,49.4-28.9,74c-2.4,5.5-4.8,11.5-9.6,15.4
		c-2.4,2-5.7,2.3-8.7,2.8c0.2,1.4,0,2.8,0.6,4.1c0.8,1.8,2.9,1.2,4.5,1.4c9-0.1,18,0.1,27-0.1c2.7-0.1,2.8-3.3,3-5.3
		c-3.5-0.7-7.8-1-9.9-4.4c-2.4-3.3-1.1-7.6,0-11.2c2-5.5,4.4-10.9,6.3-16.5c9.1,0,18.2,0,27.3,0c2.5,6.4,5.2,12.7,7.7,19.1
		c1.1,3,2,6.9-0.4,9.4c-2.9,2.9-7.3,2.7-11.1,3.4c0.1,2.1,0.1,5.8,3.2,5.5c13.3,0.1,26.7,0,40,0.1c1.4-0.1,3,0.2,4.3-0.4
		c1.7-1.1,1.3-3.3,1.6-5c-4-0.8-8.6-0.7-11.8-3.6c-3.3-3.3-4.9-7.9-6.9-12.1c-10.6-25.5-21.1-50.9-31.6-76.4
		C601.5,678.2,599.3,678.2,597,678.2z"/>
	<path fill="#BD0000" d="M377.5,296.6c8.5-0.5,17-0.4,25.5-0.3c8,0.2,16.3,0.4,24.1,2.6c8.5,2.4,14.9,9.8,17.1,18.2
		c2.5,9.5,2.9,19.7,0.3,29.2c-1.5,5.5-5,10.4-9.8,13.4c-3.8,2.6-8.4,3.4-12.8,4.5c-9.1,2.2-18.5,2.4-27.8,3.1
		c-11.1-0.4-22.3-1.8-32.8-5.5c-8.9-3.7-17.6-10.6-19.1-20.7c-1.5-10-1.5-21,4.2-29.8c4.1-5.7,10.1-10.2,16.9-12.1
		C367.8,297.7,372.6,297.1,377.5,296.6z"/>
	<path fill="#BD0000" d="M373.4,417.6c9.2-0.8,18.4-1.8,27.6-0.4c9.2,1.2,18.2,3.1,27.2,5.5c6.6,1.5,11,7.5,13.6,13.3
		c3.6,7.8,3.2,16.6,2.6,24.9c-0.9,6.9-3,14.2-8.1,19.2c-4.8,5-11.9,6.5-18.6,6.8c-13.5,0.6-27.1,0.8-40.6,0.1
		c-6.6-0.9-13.6,0-20-2.2c-7.4-2.7-12.1-9.8-13.9-17.2c-2.9-11.3-2.8-23.8,2.2-34.5c2.3-5,5.9-9.8,11.1-11.9
		C361.8,419.1,367.7,418.3,373.4,417.6z"/>
	<path fill="#BD0000" d="M394.3,684.6c9.5-0.2,19.8-0.4,28.1,4.8c13.3,8.2,20,24.3,20,39.5c0.3,12.5-3.8,25.7-13.2,34.3
		c-5.1,4.9-12.4,6.6-19.3,6.4c-4.4,0.1-9.4-0.8-12.4-4.3c-2.9-3.4-3.1-8.1-3.2-12.4C394.3,730.2,394.4,707.4,394.3,684.6z"/>
	<path fill="#BD0000" d="M504.8,684.6c5.5,0.2,11.6-1,16.7,1.9c7.8,4.1,10.7,14.1,9.1,22.3c-1.1,6.5-6.1,12.8-12.9,13.9
		c-4.3,0.7-8.6,0.6-12.9,0.6C504.8,710.5,504.8,697.5,504.8,684.6z"/>
	<path fill="#BD0000" d="M290.9,731.2c3.5-9.1,6.8-18.3,10.6-27.3c3.6,9.1,7.4,18.2,11,27.3C305.3,731.2,298.1,731.2,290.9,731.2z"
		/>
	<path fill="#BD0000" d="M594.5,703.8c3.9,9.1,7.5,18.2,11.2,27.4c-7.2,0.1-14.3,0-21.5,0C587.5,722,591.1,713,594.5,703.8z"/>
</g>
<g id="_x23_ffffffff">
	<path fill="#FFFFFF" d="M57.4,20.6c2.8-0.5,5.7-0.6,8.6-0.6c226,0,452,0,678,0c9-0.1,18.1,2.3,25.6,7.4
		c12.5,8.1,20.5,22.7,20.4,37.6c0,298,0,596,0,894c-0.2,9,0.9,18.3-1.9,27c-5.4,18.5-23.7,32.3-43.1,32c-221.7,0-443.4,0-665,0
		c-9.9-0.2-20.1,1-29.6-2.4c-14.5-4.9-26-17.7-29.3-32.6c-1.3-5.2-1.2-10.6-1.1-16c0-300.7,0-601.3,0-902
		C19.6,43.7,36.4,23.9,57.4,20.6 M104.8,87.9c-12.6,3.7-23.4,12.3-30.6,23.2c-7,10.5-9.2,23.5-8.9,35.9c0,124,0,248,0,372
		c-0.1,102.9,0.1,205.9-0.1,308.8c46.3-0.2,92.5,0,138.8-0.1c180.3,0.1,360.5-0.1,540.8,0.1c-0.2-26.6,0-53.2-0.1-79.8
		c0-200,0-400,0-600c0.4-12.8-1.7-26.1-8.9-36.9c-2.5-4.7-6.6-8-10.2-11.7c-10.9-10-26-14.4-40.6-14.1c-188,0-376,0-564,0
		C115.5,85.6,110.1,86.4,104.8,87.9 M326.6,895.6c-6.8,0-13.6,0-20.4,0c0-4.2,0-8.4,0-12.6c7.1,0,14.1,0,21.2,0c0-4.7,0-9.3,0-14
		c-7.1,0-14.1,0-21.2,0c0-5.4,0-10.8,0-16.2c-5.2,0-10.4,0-15.6,0c0,14.3,0,28.5,0,42.8c-2.6,0-5.3,0-7.9,0c-0.1-11.6,0-23.2,0-34.8
		c-4.9,0-9.8,0-14.7,0c0,11.6,0,23.2,0,34.8c-2.5,0-4.9,0-7.4,0c0,4.6,0,9.2,0,13.8c22.6,0,45.1-0.1,67.7,0.1
		c0.2-0.7,0.7-2.1,0.9-2.8c1.9,1.9,3.6,4,5.4,6c11.6-10.2,21.1-22.5,28.6-36c7.5,13.1,16.2,25.7,27.1,36.2
		c3.9-5.2,8.4-9.9,13.3-14.1c-13.3-10.5-24.3-23.8-32.4-38.7c0.6-1.5,1.1-2.9,1.6-4.4c-5.4-1.7-10.8-3.2-16.1-4.9
		C350.1,867.7,339.9,883.2,326.6,895.6 M160.3,861.5c2,4.5,3.5,9.2,4.5,14c9.7,0,19.3-1,29-1.6c0,4.2,0,8.3,0,12.5
		c-13.2,0-26.3,0-39.5,0c0,5.2,0,10.5,0,15.7c13.2,0,26.3,0,39.5,0c0,4.6,0,9.2,0,13.8c-9.6,0-19.2,0-28.8,0c0,15.5,0,30.9,0,46.4
		c25.5,0,50.9,0,76.4,0c0-15.5,0-30.9,0-46.4c-9.8,0-19.6,0-29.4,0c0-4.6,0-9.2,0-13.8c12.9,0,25.8,0,38.7,0c0-5.2,0-10.5,0-15.7
		c-12.9,0-25.8,0-38.7,0c0-4.8,0-9.6,0-14.3c10.1-1.4,20.2-2.9,30.1-5.3c-2.9-4.9-5.6-10.1-8.9-14.8
		C209.2,857.4,184.7,859.8,160.3,861.5 M425.3,851.6c0.1,9.4,0,18.8,0,28.2c-5.4,0-10.9,0-16.3,0c0,5.5,0,11.1,0,16.6
		c5.4,0,10.9,0,16.3,0c0.1,8.9,0,17.7,0,26.6c-5.9,1.4-11.8,3.1-17.8,4.3c1.3,5.9,2.7,11.7,4,17.5c4.6-1.2,9.1-2.6,13.8-3.8
		c-0.1,10.7,0.3,21.4-0.2,32.1c-4.9,0.5-9.8,0.3-14.7,0.3c2.3,5.2,3.8,10.8,4.7,16.4c7.3-0.1,15.3,0.5,21.6-4c4.7-3.2,5-9.5,5-14.7
		c0-11.7,0-23.4,0-35c5.3-1.5,10.6-3.2,15.9-4.8c-0.8-5.4-1.6-10.8-2.5-16.2c-4.5,1.2-9,2.4-13.5,3.6c0-7.4-0.1-14.8,0-22.2
		c5,0,10,0,15,0c0-5.5,0-11.1,0-16.6c-5,0-10,0-15,0c0-9.4,0-18.8,0-28.2C436.2,851.6,430.8,851.6,425.3,851.6 M113.6,866
		c8,7.7,16,15.6,22.2,24.9c4.7-3.7,9.3-7.6,14-11.3c-6.5-9-14.6-16.6-23-23.7C122.4,859.2,118,862.6,113.6,866 M465,856.3
		c0,17.3,0,34.6,0,51.9c24.7,0,49.3,0,74,0c0-17.3,0-34.6,0-51.9C514.3,856.3,489.7,856.3,465,856.3 M574.3,861c0,6,0,12,0,18
		c35.3,0,70.6,0,105.9,0c0-6,0-12,0-18C644.9,861,609.6,861,574.3,861 M348.2,901.7c3.8,5,7.4,10.1,10.5,15.6c0.7,1,1,2.3,2.1,3
		c4.7-2.4,9.3-5,13.9-7.4c-3.8-6.3-8.2-12.1-12.9-17.7C357.3,897.3,352.7,899.5,348.2,901.7 M560.6,897c0,6.1,0,12.1,0,18.2
		c19.1,0,38.3,0,57.4,0c0,18,0,35.9,0,53.9c0.1,1.5-0.1,3.8-2.1,3.8c-7.9,0.3-15.8,0.1-23.7-0.2c2.8,6.1,5,12.5,6.3,19
		c7.8-0.1,15.6,0.2,23.3-1.2c4.8-0.9,10.2-2.4,13.1-6.7c3-4.7,2.6-10.5,2.8-15.8c0-17.6,0-35.2,0-52.9c18.8,0,37.7,0,56.5,0
		c0-6.1,0-12.1,0-18.2C649.7,897,605.1,897,560.6,897 M111.6,905c0,5.5,0,11.1,0,16.7c6,0,12,0,18.1,0c0,13.3,0,26.6,0,39.9
		c-7.1,3.7-13.5,8.5-19.2,14.1c3.8,5.1,7.5,10.3,11.2,15.4c4.2-5.3,8.4-10.6,13.7-14.8c2.3-1.8,5.5-3.3,8.4-1.9
		c4.7,2,8.9,5.1,13.6,7.2c12.9,6.3,27.6,6.9,41.6,7c16.2-0.2,32.5-0.6,48.7-1.6c0.7-6,2.6-11.9,4.7-17.5c-8.1,0.9-16.2,1.7-24.3,2.2
		c-18.5,1-37.3,2.3-55.7-1c-9.3-1.5-17.4-6.6-25.5-11.1c-0.5-18.2-0.1-36.4-0.2-54.7C135,905,123.3,905,111.6,905 M290.4,911.2
		c-1.5,16.1-2.5,33.5-11.9,47.3c-0.2-14.6,0-29.1-0.1-43.7c-4.8,0-9.6,0-14.4,0c0,23.9,0,47.8,0,71.7c16-0.8,32-2,48-3.1
		c0,2.4,0,4.9,0,7.3c4.7,0,9.3,0,14,0c0-25.6,0-51.1,0-76.7c-4.7,0-9.3,0-14,0c0,14.1,0,28.2,0,42.2c-3.4-6-7.5-11.7-11.5-17.3
		c1.4-8.8,2.9-17.6,3.3-26.5C299.4,912,294.9,911.7,290.4,911.2 M457.8,914.8c0,4.9,0,9.7,0,14.6c11.7,0,23.5,0,35.2,0
		c0,13,0.1,26,0,39c-6-4.2-10.5-10.6-12.7-17.6c1-5,2-10,2.7-15.1c-5.4-0.7-10.9-1.3-16.3-2c-2,17.2-7,35.6-20.9,47.1
		c4.7,3.2,9.1,6.9,13.2,10.8c6.8-6.6,11.9-14.7,15.7-23.3c3,4.8,6.4,9.6,11.1,12.9c8.3,6.3,19.1,8.1,29.3,8.4
		c10.2,0.1,20.4,0,30.7,0.1c0.9-5.4,2.4-10.7,4.8-15.7c-13.5-0.1-27,0.3-40.5-0.3c0-5.8,0-11.6,0-17.3c9.6,0,19.1,0,28.7,0
		c-0.1-4.6-0.1-9.2,0-13.8c-9.6,0-19.1,0-28.7,0c0-4.4,0-8.8,0-13.2c12.1,0,24.3,0,36.4,0c0-4.9,0-9.7,0-14.6
		C516.9,914.8,487.3,914.8,457.8,914.8 M332.6,921.3c0,5.2,0,10.5,0,15.7c13.6,0,27.3,0,40.9,0c-4.6,7.5-9.8,14.7-15.2,21.6
		c-5.5-4.3-11-8.6-16.6-12.8c-3.2,4-6.3,8.1-9.4,12.1c14,11.5,28.4,22.4,41.3,35.1c3.3-4.7,6.7-9.4,10.1-14.1
		c-4-3.4-7.9-6.8-12-10.1c9.9-12.8,19.3-26.1,26.4-40.6c-4.1-2.6-8.2-5.2-12.2-7.9c-4.2,1.4-8.6,0.9-13,1
		C359.5,921.3,346.1,921.4,332.6,921.3 M652.7,932.4c9.3,14.5,18,29.6,23.2,46.1c6.2-2.8,12.5-5.5,18.7-8.3
		c-5.8-16.2-15.2-30.8-25-44.8C664,927.6,658.4,930.1,652.7,932.4 M582,925.9c-5.5,15.5-14.2,30-26.2,41.4
		c5.9,3.1,11.5,6.8,16.8,10.8c12.3-13.8,21.9-29.9,28.4-47.2C594.7,929.2,588.3,927.6,582,925.9z"/>
	<path fill="#FFFFFF" d="M329.5,253.7c20.6-5.9,42.3-4.5,63.5-4.7c15.7,0.1,31.4-0.3,47,0.7c9.9,1.1,20.1,3.2,28.4,9
		c10.4,6.8,17.5,17.5,22.2,28.8c8.4,20.3,10.1,43.4,4.6,64.6c-3.9,15.2-13.4,28.9-26.7,37.3c-1.1,1-3,1.4-3.4,3.1
		c7.7,6,15.5,12.2,20.7,20.6c8.4,13.3,11.5,29.3,11.5,44.9c0,19-5.9,38-17,53.4c-4.8,7.1-11.6,13-19.4,16.5
		c-8.9,3.8-18.5,5.4-28,6.4c-19.9,2.4-40,1.5-60,1.2c-6.7,0.1-13.4-1.1-20.1-1.2c-14.9-0.9-30.1-5.7-40.9-16.4
		c-13.6-13.8-21.9-32.6-23-52c-1.3-17.1,1.6-34.9,10.3-49.8c5.4-9.7,13.8-17.2,22.3-24.1c-8.6-6.8-16.7-14.6-22.5-24.1
		c-5.7-9.4-8.3-20.4-9.5-31.2c-0.8-16.1-0.9-32.8,5-48.1C300.3,272.6,313.4,259.2,329.5,253.7 M377.5,296.6
		c-4.8,0.5-9.7,1.1-14.3,2.5c-6.8,1.9-12.8,6.4-16.9,12.1c-5.7,8.7-5.7,19.8-4.2,29.8c1.5,10.1,10.3,16.9,19.1,20.7
		c10.5,3.8,21.7,5.1,32.8,5.5c9.3-0.6,18.7-0.8,27.8-3.1c4.4-1.1,9-1.9,12.8-4.5c4.8-3.1,8.3-8,9.8-13.4c2.6-9.5,2.3-19.7-0.3-29.2
		c-2.2-8.4-8.6-15.8-17.1-18.2c-7.8-2.2-16-2.4-24.1-2.6C394.5,296.2,386,296.1,377.5,296.6 M373.4,417.6
		c-5.7,0.7-11.6,1.5-16.9,3.7c-5.3,2.1-8.8,6.9-11.1,11.9c-5,10.7-5.1,23.2-2.2,34.5c1.8,7.3,6.5,14.5,13.9,17.2
		c6.4,2.2,13.4,1.3,20,2.2c13.5,0.8,27.1,0.5,40.6-0.1c6.7-0.3,13.7-1.8,18.6-6.8c5.1-5.1,7.2-12.3,8.1-19.2
		c0.6-8.3,1-17.2-2.6-24.9c-2.6-5.9-7-11.8-13.6-13.3c-8.9-2.3-18-4.3-27.2-5.5C391.8,415.9,382.6,416.8,373.4,417.6z"/>
	<path fill="#FFFFFF" d="M204.9,250.9c1.2-0.8,2.6-1.3,4-1.1c15,0,30.1,0,45.1,0c0,95.1,0,190.2,0,285.3c-15.7,0-31.5,0-47.2,0
		c0-79.1,0.1-158.3-0.1-237.5c-4.9,1.7-8.9,5.3-13.4,7.7c-13,7.4-26.1,14.7-39.5,21.3c-0.1-14.6-0.1-29.2,0-43.8
		C172.6,275.5,188.8,262.8,204.9,250.9z"/>
	<path fill="#FFFFFF" d="M581.9,323.9c-0.5-3.3,2.8-6.6,6.1-6.2c8,0.1,16-0.1,24,0.1c2,0.7,4.3,2.7,4.1,5.1c0,16.7,0,33.3,0,50
		c15.7,0.1,31.3,0,47,0c2.3-0.3,3.6,1.9,5,3.3c0.6,4.2,0.1,8.5,0.3,12.7c-0.2,4.6,0.4,9.2-0.3,13.7c-1.4,1.4-2.7,3.6-5,3.3
		c-15.7,0-31.3,0-47,0c-0.2,17.2,0.2,34.5-0.2,51.7c-1.3,1.5-2.6,3.6-4.8,3.4c-8.3,0-16.6,0.1-24.9-0.1c-2-0.7-4.3-2.8-4.2-5.1
		c-0.1-16.7,0-33.3,0-50c-15.6-0.1-31.3,0-46.9,0c-2.7,0.2-4.2-2.5-5.8-4.3c-0.3-8.1-0.3-16.4,0-24.5c1.6-1.7,3.1-4.5,5.8-4.3
		c15.6,0,31.3,0,46.9,0C581.9,356.6,581.9,340.3,581.9,323.9z"/>
	<rect x="65.2" y="620" fill="#BD0000" width="679.6" height="207.8"/>
	<g>
		<path fill="#FFFFFF" d="M171.7,687.2c10.4-8.1,23.9-11.9,37-11.1c8,0.2,15.5,3.4,23.1,5.6c0.9-1.3,1.7-2.6,2.5-4
			c1.6,0,3.3,0,4.9,0c0.1,8.8,0.3,17.6,0.5,26.4c0,2.7,1.1,5.9-1,8.1c-1.2,0.4-2.4,0.5-3.7,0.8c-2.9-6.5-4.6-13.7-8.8-19.5
			c-3.4-4.6-8.1-8.8-13.7-10.3c-7.3-1.7-15.6-0.6-21.5,4.4c-10.7,8.8-15.8,22.9-16.2,36.5c-0.4,11.1,1.2,22.9,7.4,32.3
			c4.3,6.3,10.9,11.1,18.4,12.6c9,1.7,19.2,0.7,26.4-5.4c5.6-5,7.5-12.7,8.9-19.8c1.9,0.3,3.7,0.6,5.6,0.9
			c-0.9,8.1-2.9,16.6-8.6,22.8c-7.1,7.7-18.1,10.7-28.3,10.7c-13.3,0.3-27.4-3.4-36.9-13.1c-10.5-10.2-14.4-25.6-13.6-39.8
			C154.9,710.9,160.4,696.3,171.7,687.2z"/>
		<path fill="#FFFFFF" d="M294.4,678.6c2.1-0.9,4.6-0.3,6.9-0.4c8.9,21.7,17.9,43.4,26.9,65.1c2.5,5.9,4.8,11.9,7.6,17.6
			c1.6,2.9,3.3,6.1,6.6,7.5c2.8,1.1,5.8,1.3,8.6,1.8c0.5,2.1,0.4,5.3-2.4,5.5c-15,0.1-29.9,0-44.9,0c-0.9-1.7-1.4-3.5-1.5-5.4
			c4-0.8,9.1-0.5,11.8-4.1c2-2.8,0.8-6.4-0.3-9.3c-2.5-6.2-5.1-12.4-7.5-18.6c-9.1-0.1-18.2,0-27.3,0c-2,5.5-4.4,11-6.3,16.5
			c-1.2,3.6-2.4,8,0,11.3c2,3.3,6.3,3.5,9.7,4.2c-0.1,1.9-0.6,3.7-1.5,5.4c-10.7,0-21.4,0-32.1,0c-0.9-1.7-1.4-3.5-1.5-5.4
			c3.1-0.5,6.5-0.8,9-2.9c4.7-4.1,7.2-10,9.6-15.5C275.5,727.6,284.7,703,294.4,678.6 M281.7,731.2c7.2,0,14.4,0,21.6,0
			c-3.6-9.1-7.4-18.2-11-27.3C288.5,712.9,285.2,722.1,281.7,731.2z"/>
		<path fill="#FFFFFF" d="M358.9,678.4c2.8-0.5,5.7-0.2,8.6-0.3c14.6,0.1,29.3-0.2,43.9,0.2c11.2,0.4,22.6,4,31.1,11.7
			c10.8,9.4,16.8,23.7,17.2,37.9c0.6,13.1-3.1,27.1-12.7,36.4c-5.4,5.4-12.7,8.7-20.3,9.9c-11.6,2.1-23.4,1.4-35.1,1.5
			c-11-0.1-22,0.2-33-0.1c-0.6-1.8-1.1-3.6-1.5-5.4c3.9-0.6,8.5-0.4,11.4-3.5c3.2-3,3.1-7.7,3.4-11.8c0-17,0-34,0-51
			c-0.1-5.1,0.4-10.5-2-15.2c-2.5-4.3-8-4.6-12.4-5.1C357.6,681.9,357.2,679.6,358.9,678.4 M390.8,684.6c0.1,22.8,0,45.6,0,68.3
			c0.1,4.3,0.3,9,3.2,12.4c3,3.5,8,4.4,12.4,4.3c6.9,0.2,14.2-1.5,19.3-6.4c9.4-8.6,13.5-21.8,13.2-34.3c0-15.2-6.7-31.3-20-39.5
			C410.6,684.2,400.4,684.4,390.8,684.6z"/>
		<path fill="#FFFFFF" d="M465.6,681.7c-0.3-2,1.9-3.8,3.9-3.5c11.3,0,22.7,0,34,0c6.7,0,13.4-0.1,20,0.8
			c10.9,1.4,20.6,10.4,22.3,21.4c1,7,0.1,14.7-4.6,20.3c-4.6,5.6-11.8,8.2-18.8,8.8c-7.7,0.4-15.4,0.3-23.1,0.3c0,8.7,0,17.5,0,26.2
			c0.1,3.8,0.5,8,3.3,10.9c2.9,2.9,7.3,3,11.1,3.4c-0.1,2.1-0.1,5.9-3.2,5.5c-13.9,0.1-27.9,0.1-41.8,0c-2.7-0.2-3.1-3.3-3.3-5.4
			c4-0.6,8.7-0.5,11.7-3.8c3.3-3.3,2.8-8.4,3.1-12.6c0-17.9,0-35.9,0-53.8c-0.3-4.9,0.1-11.1-4.6-14.1
			C472.5,683.7,467.6,685.2,465.6,681.7 M499.3,684.6c0,12.9,0,25.8,0,38.8c4.3,0,8.6,0.1,12.9-0.6c6.8-1.2,11.8-7.4,12.9-13.9
			c1.5-8.2-1.3-18.2-9.1-22.3C510.9,683.7,504.8,684.8,499.3,684.6z"/>
		<path fill="#FFFFFF" d="M599,678.2c2.3,0,4.5,0,6.8,0.1c10.5,25.5,21.1,50.9,31.6,76.4c1.9,4.2,3.5,8.8,6.9,12.1
			c3.1,3,7.8,2.8,11.8,3.6c-0.4,1.7,0.1,4-1.6,5c-1.3,0.6-2.9,0.3-4.3,0.4c-13.3-0.1-26.7,0-40-0.1c-3.1,0.3-3.1-3.3-3.2-5.5
			c3.8-0.7,8.2-0.5,11.1-3.4c2.4-2.6,1.5-6.5,0.4-9.4c-2.5-6.4-5.3-12.7-7.7-19.1c-9.1,0-18.2,0-27.3,0c-1.9,5.6-4.3,11-6.3,16.5
			c-1.1,3.5-2.4,7.8,0,11.2c2,3.4,6.3,3.7,9.9,4.4c-0.2,2-0.3,5.2-3,5.3c-9,0.1-18,0-27,0.1c-1.5-0.2-3.7,0.4-4.5-1.4
			c-0.6-1.3-0.4-2.8-0.6-4.1c3-0.5,6.3-0.7,8.7-2.8c4.8-3.9,7.3-9.8,9.6-15.4C580,727.5,589.3,702.8,599,678.2 M596.5,703.8
			c-3.4,9.2-7,18.2-10.4,27.4c7.2,0,14.3,0,21.5,0C604,722,600.4,712.9,596.5,703.8z"/>
	</g>
	<path fill="#FFFFFF" d="M481.7,868.7c13.4,0,26.8,0,40.1,0c0,2.4,0,4.9,0,7.3c-13.4,0-26.8,0-40.1,0
		C481.6,873.5,481.6,871.1,481.7,868.7z"/>
	<path fill="#FFFFFF" d="M481.7,888c13.4,0,26.8,0,40.1,0c0,2.4,0,4.9,0,7.3c-13.4,0-26.8,0-40.1,0
		C481.6,892.9,481.6,890.4,481.7,888z"/>
	<path fill="#FFFFFF" d="M182,930c13.9,0,27.7,0,41.6,0c0,6,0,12,0,18c-13.9,0-27.7,0-41.6,0C182,942,182,936,182,930z"/>
	<path fill="#FFFFFF" d="M286.8,970.4c3.8-4.8,6.7-10.2,9.1-15.8c2.6,4.3,5.1,8.6,7.3,13.2c2.9-2.8,5.8-5.4,8.8-8.1
		c0,3.4,0,6.8,0,10.3c-11.2,0.8-22.4,1.1-33.6,1.7c0-3.2,0-6.5,0-9.7C281.4,964.6,284.2,967.4,286.8,970.4z"/>
</g>
</svg>
